<?xml version="1.0" encoding="utf-8"?>
<!-- Generator: Adobe Illustrator 21.1.0, SVG Export Plug-In . SVG Version: 6.00 Build 0)  -->
<svg version="1.1" id="Layer_1" xmlns="http://www.w3.org/2000/svg" xmlns:xlink="http://www.w3.org/1999/xlink" x="0px" y="0px"
	 viewBox="0 0 470 480" style="enable-background:new 0 0 470 480;" xml:space="preserve">
<style type="text/css">
	.st0{fill:none;stroke:#000000;stroke-miterlimit:10;}
	.st1{font-family:'ArialMT';}
	.st2{font-size:12px;}
	.st3{fill:none;}
	.st4{opacity:0.9;fill:#E69F00;enable-background:new    ;}
	.st5{opacity:0.9;fill:#56B4E9;enable-background:new    ;}
	.st6{opacity:0.9;fill:#009E73;enable-background:new    ;}
	.st7{opacity:0.9;fill:#0072B2;enable-background:new    ;}
	.st8{opacity:0.9;fill:#F0E442;enable-background:new    ;}
	.st9{fill:none;stroke:#E69F00;}
	.st10{fill:none;stroke:#56B4E9;}
	.st11{fill:none;stroke:#009E73;}
	.st12{fill:none;stroke:#0072B2;}
	.st13{fill:none;stroke:#F0E442;}
</style>
<g transform="translate(6.1665908650739505,0)">
	<line class="st0" x1="40" y1="380" x2="40" y2="386"/>
</g>
<g transform="translate(17.06785609275109,0)">
	<line class="st0" x1="40" y1="380" x2="40" y2="386"/>
</g>
<g transform="translate(25.974838327407966,0)">
	<line class="st0" x1="40" y1="380" x2="40" y2="386"/>
</g>
<g transform="translate(33.50558450369988,0)">
	<line class="st0" x1="40" y1="380" x2="40" y2="386"/>
</g>
<g transform="translate(40.029013563817735,0)">
	<line class="st0" x1="40" y1="380" x2="40" y2="386"/>
</g>
<g transform="translate(45.78308578974198,0)">
	<line class="st0" x1="40" y1="380" x2="40" y2="386"/>
</g>
<line class="st0" x1="90.9" y1="380" x2="90.9" y2="386"/>
<text transform="matrix(0.4226 -0.9063 0.9063 0.4226 93.6734 399.6725)" class="st1 st2">1M</text>
<line class="st0" x1="124.8" y1="380" x2="124.8" y2="386"/>
<text transform="matrix(0.4226 -0.9063 0.9063 0.4226 127.5357 399.6725)" class="st1 st2">2M</text>
<g transform="translate(104.60094895257268,0)">
	<line class="st0" x1="40" y1="380" x2="40" y2="386"/>
</g>
<g transform="translate(118.65512418898246,0)">
	<line class="st0" x1="40" y1="380" x2="40" y2="386"/>
</g>
<g transform="translate(129.55638941665967,0)">
	<line class="st0" x1="40" y1="380" x2="40" y2="386"/>
</g>
<g transform="translate(138.46337165131646,0)">
	<line class="st0" x1="40" y1="380" x2="40" y2="386"/>
</g>
<g transform="translate(145.9941178276084,0)">
	<line class="st0" x1="40" y1="380" x2="40" y2="386"/>
</g>
<g transform="translate(152.51754688772624,0)">
	<line class="st0" x1="40" y1="380" x2="40" y2="386"/>
</g>
<g transform="translate(158.2716191136504,0)">
	<line class="st0" x1="40" y1="380" x2="40" y2="386"/>
</g>
<line class="st0" x1="203.4" y1="380" x2="203.4" y2="386"/>
<text transform="matrix(0.4226 -0.9063 0.9063 0.4226 203.3414 405.7213)" class="st1 st2">10M</text>
<line class="st0" x1="237.3" y1="380" x2="237.3" y2="386"/>
<text transform="matrix(0.4226 -0.9063 0.9063 0.4226 237.2039 405.7213)" class="st1 st2">20M</text>
<g transform="translate(217.08948227648105,0)">
	<line class="st0" x1="40" y1="380" x2="40" y2="386"/>
</g>
<g transform="translate(231.14365751289094,0)">
	<line class="st0" x1="40" y1="380" x2="40" y2="386"/>
</g>
<g transform="translate(242.0449227405681,0)">
	<line class="st0" x1="40" y1="380" x2="40" y2="386"/>
</g>
<g transform="translate(250.95190497522495,0)">
	<line class="st0" x1="40" y1="380" x2="40" y2="386"/>
</g>
<g transform="translate(258.48265115151685,0)">
	<line class="st0" x1="40" y1="380" x2="40" y2="386"/>
</g>
<g transform="translate(265.00608021163475,0)">
	<line class="st0" x1="40" y1="380" x2="40" y2="386"/>
</g>
<g transform="translate(270.76015243755893,0)">
	<line class="st0" x1="40" y1="380" x2="40" y2="386"/>
</g>
<line class="st0" x1="315.9" y1="380" x2="315.9" y2="386"/>
<text transform="matrix(0.4226 -0.9063 0.9063 0.4226 313.0096 411.7692)" class="st1 st2">100M</text>
<line class="st0" x1="349.8" y1="380" x2="349.8" y2="386"/>
<text transform="matrix(0.4226 -0.9063 0.9063 0.4226 346.8719 411.7692)" class="st1 st2">200M</text>
<g transform="translate(329.57801560038956,0)">
	<line class="st0" x1="40" y1="380" x2="40" y2="386"/>
</g>
<g transform="translate(343.63219083679934,0)">
	<line class="st0" x1="40" y1="380" x2="40" y2="386"/>
</g>
<g transform="translate(354.5334560644767,0)">
	<line class="st0" x1="40" y1="380" x2="40" y2="386"/>
</g>
<g transform="translate(363.4404382991336,0)">
	<line class="st0" x1="40" y1="380" x2="40" y2="386"/>
</g>
<g transform="translate(370.97118447542545,0)">
	<line class="st0" x1="40" y1="380" x2="40" y2="386"/>
</g>
<g transform="translate(377.4946135355431,0)">
	<line class="st0" x1="40" y1="380" x2="40" y2="386"/>
</g>
<g transform="translate(383.24868576146736,0)">
	<line class="st0" x1="40" y1="380" x2="40" y2="386"/>
</g>
<line class="st0" x1="428.4" y1="380" x2="428.4" y2="386"/>
<text transform="matrix(0.4226 -0.9063 0.9063 0.4226 431.4188 399.0719)" class="st1 st2">1G</text>
<path class="st0" d="M40,380L40,380h400l0,0"/>
<g transform="translate(-5,350)">
	<text transform="matrix(1 0 0 1 387.3125 24)" class="st1 st2">Area (log)</text>
</g>
<g transform="translate(0,350)">
	<line class="st3" x1="40" y1="30" x2="34" y2="30"/>
	<text transform="matrix(1 0 0 1 17.6523 33.84)" class="st1 st2">60</text>
</g>
<line class="st0" x1="40" y1="350.8" x2="34" y2="350.8"/>
<text transform="matrix(1 0 0 1 17.6523 354.6733)" class="st1 st2">70</text>
<line class="st0" x1="40" y1="321.7" x2="34" y2="321.7"/>
<text transform="matrix(1 0 0 1 17.6523 325.5067)" class="st1 st2">80</text>
<line class="st0" x1="40" y1="292.5" x2="34" y2="292.5"/>
<text transform="matrix(1 0 0 1 17.6523 296.34)" class="st1 st2">90</text>
<line class="st0" x1="40" y1="263.3" x2="34" y2="263.3"/>
<text transform="matrix(1 0 0 1 10.9785 267.1733)" class="st1 st2">100</text>
<line class="st0" x1="40" y1="234.2" x2="34" y2="234.2"/>
<text transform="matrix(1 0 0 1 11.8691 238.0066)" class="st1 st2">110</text>
<line class="st0" x1="40" y1="205" x2="34" y2="205"/>
<text transform="matrix(1 0 0 1 10.9785 208.84)" class="st1 st2">120</text>
<line class="st0" x1="40" y1="175.8" x2="34" y2="175.8"/>
<text transform="matrix(1 0 0 1 10.9785 179.6733)" class="st1 st2">130</text>
<line class="st0" x1="40" y1="146.7" x2="34" y2="146.7"/>
<text transform="matrix(1 0 0 1 10.9785 150.5066)" class="st1 st2">140</text>
<line class="st0" x1="40" y1="117.5" x2="34" y2="117.5"/>
<text transform="matrix(1 0 0 1 10.9785 121.34)" class="st1 st2">150</text>
<line class="st0" x1="40" y1="88.3" x2="34" y2="88.3"/>
<text transform="matrix(1 0 0 1 10.9785 92.1733)" class="st1 st2">160</text>
<line class="st0" x1="40" y1="59.2" x2="34" y2="59.2"/>
<text transform="matrix(1 0 0 1 10.9785 63.0066)" class="st1 st2">170</text>
<g transform="translate(0,0)">
	<line class="st3" x1="40" y1="30" x2="34" y2="30"/>
	<text transform="matrix(1 0 0 1 10.9785 33.84)" class="st1 st2">180</text>
</g>
<path class="st0" d="M34,30h6v350h-6"/>
<text transform="matrix(6.123234e-17 -1 1 6.123234e-17 54.52 148.0492)" class="st1 st2">Phylogenetic Diversity</text>
<circle class="st4" cx="194.4" cy="322" r="5"/>
<circle class="st4" cx="439.8" cy="199.1" r="5"/>
<circle class="st4" cx="122.8" cy="73.4" r="5"/>
<circle class="st4" cx="277.2" cy="321.6" r="5"/>
<circle class="st4" cx="96.5" cy="73.4" r="5"/>
<circle class="st4" cx="245.8" cy="222.6" r="5"/>
<circle class="st4" cx="245.9" cy="222.6" r="5"/>
<circle class="st4" cx="147.4" cy="73.4" r="5"/>
<circle class="st4" cx="369.1" cy="234.1" r="5"/>
<circle class="st4" cx="356.8" cy="222.6" r="5"/>
<circle class="st4" cx="194" cy="73.4" r="5"/>
<circle class="st4" cx="120.9" cy="73.4" r="5"/>
<circle class="st4" cx="295.9" cy="321.6" r="5"/>
<circle class="st4" cx="207.2" cy="197.5" r="5"/>
<circle class="st4" cx="352.1" cy="222.6" r="5"/>
<circle class="st4" cx="439.2" cy="234.1" r="5"/>
<circle class="st4" cx="440" cy="194.6" r="5"/>
<circle class="st4" cx="115.9" cy="73.4" r="5"/>
<circle class="st4" cx="177.2" cy="197.5" r="5"/>
<circle class="st4" cx="246" cy="73.4" r="5"/>
<circle class="st4" cx="231.4" cy="222.6" r="5"/>
<circle class="st4" cx="194.1" cy="187.2" r="5"/>
<circle class="st4" cx="257.3" cy="222.6" r="5"/>
<circle class="st4" cx="189.1" cy="322" r="5"/>
<path class="st5" d="M194.4,245.3l6.1,10.5h-12.2L194.4,245.3z"/>
<path class="st5" d="M174.2,239l6.1,10.5h-12.2L174.2,239z"/>
<path class="st5" d="M439.8,178.6l6.1,10.5h-12.2L439.8,178.6z"/>
<path class="st5" d="M122.8,244.6l6.1,10.5h-12.2L122.8,244.6z"/>
<path class="st5" d="M277.2,183.9l6.1,10.5h-12.2L277.2,183.9z"/>
<path class="st5" d="M217.6,249.1l6.1,10.5h-12.2L217.6,249.1z"/>
<path class="st5" d="M96.5,266.6l6.1,10.5H90.5L96.5,266.6z"/>
<path class="st5" d="M245.8,256.6l6.1,10.5h-12.2L245.8,256.6z"/>
<path class="st5" d="M245.9,247.8l6.1,10.5h-12.2L245.9,247.8z"/>
<path class="st5" d="M147.4,204l6.1,10.5h-12.2L147.4,204z"/>
<path class="st5" d="M369.1,193.9l6.1,10.5h-12.2L369.1,193.9z"/>
<path class="st5" d="M356.8,177.3l6.1,10.5h-12.2L356.8,177.3z"/>
<path class="st5" d="M226,239l6.1,10.5h-12.2L226,239z"/>
<path class="st5" d="M194,273.4l6.1,10.5h-12.2L194,273.4z"/>
<path class="st5" d="M120.9,238.9l6.1,10.5h-12.2L120.9,238.9z"/>
<path class="st5" d="M295.9,226.2l6.1,10.5h-12.2L295.9,226.2z"/>
<path class="st5" d="M207.2,263.1l6.1,10.5h-12.2L207.2,263.1z"/>
<path class="st5" d="M352.1,162.6l6.1,10.5H346L352.1,162.6z"/>
<path class="st5" d="M439.2,175.3l6.1,10.5h-12.2L439.2,175.3z"/>
<path class="st5" d="M440,172.8l6.1,10.5h-12.2L440,172.8z"/>
<path class="st5" d="M115.9,266.6l6.1,10.5h-12.2L115.9,266.6z"/>
<path class="st5" d="M182,292.9l6.1,10.5H176L182,292.9z"/>
<path class="st5" d="M177.2,237.9l6.1,10.5h-12.2L177.2,237.9z"/>
<path class="st5" d="M246,263.1l6.1,10.5h-12.2L246,263.1z"/>
<path class="st5" d="M231.4,217.7l6.1,10.5h-12.2L231.4,217.7z"/>
<path class="st5" d="M319.7,243.4l6.1,10.5h-12.2L319.7,243.4z"/>
<path class="st5" d="M165.9,239l6.1,10.5h-12.2L165.9,239z"/>
<path class="st5" d="M194.1,186.1l6.1,10.5h-12.2L194.1,186.1z"/>
<path class="st5" d="M257.3,203l6.1,10.5h-12.2L257.3,203z"/>
<path class="st5" d="M189.1,195.7l6.1,10.5H183L189.1,195.7z"/>
<path class="st6" d="M189.1,210.3h3.6v-3.6h3.6v3.6h3.6v3.6h-3.6v3.6h-3.6v-3.6h-3.6V210.3z"/>
<path class="st6" d="M168.8,258.5h3.6v-3.6h3.6v3.6h3.6v3.6h-3.6v3.6h-3.6v-3.6h-3.6V258.5z"/>
<path class="st6" d="M434.4,156.4h3.6v-3.6h3.6v3.6h3.6v3.6h-3.6v3.6H438V160h-3.6V156.4z"/>
<path class="st6" d="M117.5,258.5h3.6v-3.6h3.6v3.6h3.6v3.6h-3.6v3.6h-3.6v-3.6h-3.6V258.5z"/>
<path class="st6" d="M271.8,153.8h3.6v-3.6h3.6v3.6h3.6v3.6H279v3.6h-3.6v-3.6h-3.6V153.8z"/>
<path class="st6" d="M212.3,258.5h3.6v-3.6h3.6v3.6h3.6v3.6h-3.6v3.6h-3.6v-3.6h-3.6V258.5z"/>
<path class="st6" d="M240.5,237.5h3.6v-3.6h3.6v3.6h3.6v3.6h-3.6v3.6H244v-3.6h-3.6V237.5z"/>
<path class="st6" d="M240.6,95.9h3.6v-3.6h3.6v3.6h3.6v3.6h-3.6v3.6h-3.6v-3.6h-3.6V95.9z"/>
<path class="st6" d="M142,169.1h3.6v-3.6h3.6v3.6h3.6v3.6h-3.6v3.6h-3.6v-3.6H142V169.1z"/>
<path class="st6" d="M363.8,152.6h3.6V149h3.6v3.6h3.6v3.6h-3.6v3.6h-3.6v-3.6h-3.6V152.6z"/>
<path class="st6" d="M351.5,127h3.6v-3.6h3.6v3.6h3.6v3.6h-3.6v3.6H355v-3.6h-3.6V127z"/>
<path class="st6" d="M188.6,55.6h3.6V52h3.6v3.6h3.6v3.6h-3.6v3.6h-3.6v-3.6h-3.6V55.6z"/>
<path class="st6" d="M290.6,298.6h3.6V295h3.6v3.6h3.6v3.6h-3.6v3.6h-3.6v-3.6h-3.6V298.6z"/>
<path class="st6" d="M201.8,107.1h3.6v-3.6h3.6v3.6h3.6v3.6H209v3.6h-3.6v-3.6h-3.6V107.1z"/>
<path class="st6" d="M346.7,102.3h3.6v-3.6h3.6v3.6h3.6v3.6h-3.6v3.6h-3.6v-3.6h-3.6V102.3z"/>
<path class="st6" d="M433.8,138.7h3.6v-3.6h3.6v3.6h3.6v3.6H441v3.6h-3.6v-3.6h-3.6V138.7z"/>
<path class="st6" d="M434.6,202.7h3.6v-3.6h3.6v3.6h3.6v3.6h-3.6v3.6h-3.6v-3.6h-3.6V202.7z"/>
<path class="st6" d="M171.8,133.9h3.6v-3.6h3.6v3.6h3.6v3.6h-3.6v3.6h-3.6v-3.6h-3.6V133.9z"/>
<path class="st6" d="M226,96.9h3.6v-3.6h3.6v3.6h3.6v3.6h-3.6v3.6h-3.6v-3.6H226V96.9z"/>
<path class="st6" d="M314.3,321.8h3.6v-3.6h3.6v3.6h3.6v3.6h-3.6v3.6h-3.6v-3.6h-3.6V321.8z"/>
<path class="st6" d="M188.8,186.5h3.6v-3.6h3.6v3.6h3.6v3.6h-3.6v3.6h-3.6V190h-3.6V186.5z"/>
<path class="st6" d="M251.9,139.1h3.6v-3.6h3.6v3.6h3.6v3.6h-3.6v3.6h-3.6v-3.6h-3.6V139.1z"/>
<path class="st6" d="M183.8,258.5h3.6v-3.6h3.6v3.6h3.6v3.6h-3.6v3.6h-3.6v-3.6h-3.6V258.5z"/>
<path class="st7" d="M194.4,158.1l6.1-10.5h-12.2L194.4,158.1z"/>
<path class="st7" d="M174.2,298.7l6.1-10.5h-12.2L174.2,298.7z"/>
<path class="st7" d="M439.8,123l6.1-10.5h-12.2L439.8,123z"/>
<path class="st7" d="M277.2,138.7l6.1-10.5h-12.2L277.2,138.7z"/>
<path class="st7" d="M245.8,181.4l6.1-10.5h-12.2L245.8,181.4z"/>
<path class="st7" d="M245.9,127.7l6.1-10.5h-12.2L245.9,127.7z"/>
<path class="st7" d="M147.4,146.7l6.1-10.5h-12.2L147.4,146.7z"/>
<path class="st7" d="M369.1,177.1l6.1-10.5h-12.2L369.1,177.1z"/>
<path class="st7" d="M356.8,119.8l6.1-10.5h-12.2L356.8,119.8z"/>
<path class="st7" d="M226,67.2l6.1-10.5h-12.2L226,67.2z"/>
<path class="st7" d="M194,129.7l6.1-10.5h-12.2L194,129.7z"/>
<path class="st7" d="M120.9,113.7l6.1-10.5h-12.2L120.9,113.7z"/>
<path class="st7" d="M295.9,78.3l6.1-10.5h-12.2L295.9,78.3z"/>
<path class="st7" d="M207.2,145.2l6.1-10.5h-12.2L207.2,145.2z"/>
<path class="st7" d="M352.1,119.2l6.1-10.5H346L352.1,119.2z"/>
<path class="st7" d="M439.2,144.5l6.1-10.5h-12.2L439.2,144.5z"/>
<path class="st7" d="M440,169.8l6.1-10.5h-12.2L440,169.8z"/>
<path class="st7" d="M177.2,91.4l6.1-10.5h-12.2L177.2,91.4z"/>
<path class="st7" d="M231.4,206.9l6.1-10.5h-12.2L231.4,206.9z"/>
<path class="st7" d="M319.7,197.2l6.1-10.5h-12.2L319.7,197.2z"/>
<path class="st7" d="M165.9,298.7l6.1-10.5h-12.2L165.9,298.7z"/>
<path class="st7" d="M194.1,126.3l6.1-10.5h-12.2L194.1,126.3z"/>
<path class="st7" d="M257.3,153.4l6.1-10.5h-12.2L257.3,153.4z"/>
<path class="st7" d="M189.1,192.8l6.1-10.5H183L189.1,192.8z"/>
<path class="st8" d="M194.4,129.9l4.3,7.4l-4.3,7.4l-4.3-7.4L194.4,129.9z"/>
<path class="st8" d="M174.2,214.5l4.3,7.4l-4.3,7.4l-4.3-7.4L174.2,214.5z"/>
<path class="st8" d="M439.8,136l4.3,7.4l-4.3,7.4l-4.3-7.4L439.8,136z"/>
<path class="st8" d="M122.8,87.5l4.3,7.4l-4.3,7.4l-4.3-7.4L122.8,87.5z"/>
<path class="st8" d="M277.2,233.6l4.3,7.4l-4.3,7.4l-4.3-7.4L277.2,233.6z"/>
<path class="st8" d="M217.6,214.5l4.3,7.4l-4.3,7.4l-4.3-7.4L217.6,214.5z"/>
<path class="st8" d="M96.5,87.5l4.3,7.4l-4.3,7.4l-4.3-7.4L96.5,87.5z"/>
<path class="st8" d="M245.8,128l4.3,7.4l-4.3,7.4l-4.3-7.4L245.8,128z"/>
<path class="st8" d="M245.9,159.1l4.3,7.4l-4.3,7.4l-4.3-7.4L245.9,159.1z"/>
<path class="st8" d="M147.4,73.1l4.3,7.4l-4.3,7.4l-4.3-7.4L147.4,73.1z"/>
<path class="st8" d="M369.1,183l4.3,7.4l-4.3,7.4l-4.3-7.4L369.1,183z"/>
<path class="st8" d="M356.8,165.8l4.3,7.4l-4.3,7.4l-4.3-7.4L356.8,165.8z"/>
<path class="st8" d="M226,214.5l4.3,7.4l-4.3,7.4l-4.3-7.4L226,214.5z"/>
<path class="st8" d="M194,152.9l4.3,7.4l-4.3,7.4l-4.3-7.4L194,152.9z"/>
<path class="st8" d="M120.9,87.5l4.3,7.4l-4.3,7.4l-4.3-7.4L120.9,87.5z"/>
<path class="st8" d="M295.9,214.5l4.3,7.4l-4.3,7.4l-4.3-7.4L295.9,214.5z"/>
<path class="st8" d="M207.2,130.2l4.3,7.4l-4.3,7.4l-4.3-7.4L207.2,130.2z"/>
<path class="st8" d="M352.1,140.3l4.3,7.4l-4.3,7.4l-4.3-7.4L352.1,140.3z"/>
<path class="st8" d="M439.2,162.5l4.3,7.4l-4.3,7.4l-4.3-7.4L439.2,162.5z"/>
<path class="st8" d="M440,98.2l4.3,7.4l-4.3,7.4l-4.3-7.4L440,98.2z"/>
<path class="st8" d="M115.9,87.5l4.3,7.4l-4.3,7.4l-4.3-7.4L115.9,87.5z"/>
<path class="st8" d="M177.2,184.6l4.3,7.4l-4.3,7.4l-4.3-7.4L177.2,184.6z"/>
<path class="st8" d="M246,214.5l4.3,7.4l-4.3,7.4l-4.3-7.4L246,214.5z"/>
<path class="st8" d="M231.4,152.6l4.3,7.4l-4.3,7.4l-4.3-7.4L231.4,152.6z"/>
<path class="st8" d="M319.7,114.4l4.3,7.4l-4.3,7.4l-4.3-7.4L319.7,114.4z"/>
<path class="st8" d="M165.9,87.5l4.3,7.4l-4.3,7.4l-4.3-7.4L165.9,87.5z"/>
<path class="st8" d="M194.1,163.3l4.3,7.4l-4.3,7.4l-4.3-7.4L194.1,163.3z"/>
<path class="st8" d="M257.3,177.4l4.3,7.4l-4.3,7.4l-4.3-7.4L257.3,177.4z"/>
<path class="st8" d="M189.1,177l4.3,7.4l-4.3,7.4l-4.3-7.4L189.1,177z"/>
<line class="st9" x1="40" y1="293.5" x2="440" y2="195.6"/>
<line class="st10" x1="40" y1="263.5" x2="440" y2="166"/>
<line class="st11" x1="40" y1="307.2" x2="440" y2="132.2"/>
<line class="st12" x1="40" y1="270.2" x2="440" y2="107.6"/>
<line class="st13" x1="40" y1="204.1" x2="440" y2="132.7"/>
</svg>
