<?xml version="1.0" encoding="utf-8"?>
<!-- Generator: Adobe Illustrator 21.1.0, SVG Export Plug-In . SVG Version: 6.00 Build 0)  -->
<svg version="1.1" id="Layer_1" xmlns="http://www.w3.org/2000/svg" xmlns:xlink="http://www.w3.org/1999/xlink" x="0px" y="0px"
	 viewBox="0 0 470 480" style="enable-background:new 0 0 470 480;" xml:space="preserve">
<style type="text/css">
	.st0{fill:none;stroke:#070707;stroke-miterlimit:10;}
	.st1{fill:#070707;}
	.st2{font-family:'ArialMT';}
	.st3{font-size:12px;}
	.st4{fill:none;}
	.st5{opacity:0.9;fill:#E69F00;enable-background:new    ;}
	.st6{opacity:0.9;fill:#56B4E9;enable-background:new    ;}
	.st7{opacity:0.9;fill:#009E73;enable-background:new    ;}
	.st8{opacity:0.9;fill:#0072B2;enable-background:new    ;}
	.st9{opacity:0.9;fill:#F0E442;enable-background:new    ;}
	.st10{fill:none;stroke:#E69F00;}
	.st11{fill:none;stroke:#56B4E9;}
	.st12{fill:none;stroke:#009E73;}
	.st13{fill:none;stroke:#0072B2;}
	.st14{fill:none;stroke:#F0E442;}
</style>
<g transform="translate(6.1665908650739505,0)">
	<line class="st0" x1="40" y1="380" x2="40" y2="386"/>
</g>
<g transform="translate(17.06785609275109,0)">
	<line class="st0" x1="40" y1="380" x2="40" y2="386"/>
</g>
<g transform="translate(25.974838327407966,0)">
	<line class="st0" x1="40" y1="380" x2="40" y2="386"/>
</g>
<g transform="translate(33.50558450369988,0)">
	<line class="st0" x1="40" y1="380" x2="40" y2="386"/>
</g>
<g transform="translate(40.029013563817735,0)">
	<line class="st0" x1="40" y1="380" x2="40" y2="386"/>
</g>
<g transform="translate(45.78308578974198,0)">
	<line class="st0" x1="40" y1="380" x2="40" y2="386"/>
</g>
<g transform="translate(50.93027879149488,0)">
	<line class="st1" x1="40" y1="380" x2="40" y2="386"/>
	<text transform="matrix(0.4226 -0.9063 0.9063 0.4226 42.7432 399.6725)" class="st1 st2 st3">1M</text>
</g>
<g transform="translate(84.79270149023867,0)">
	<line class="st1" x1="40" y1="380" x2="40" y2="386"/>
	<text transform="matrix(0.4226 -0.9063 0.9063 0.4226 42.7431 399.6725)" class="st1 st2 st3">2M</text>
</g>
<g transform="translate(104.60094895257268,0)">
	<line class="st0" x1="40" y1="380" x2="40" y2="386"/>
</g>
<g transform="translate(118.65512418898246,0)">
	<line class="st0" x1="40" y1="380" x2="40" y2="386"/>
</g>
<g transform="translate(129.55638941665967,0)">
	<line class="st0" x1="40" y1="380" x2="40" y2="386"/>
</g>
<g transform="translate(138.46337165131646,0)">
	<line class="st0" x1="40" y1="380" x2="40" y2="386"/>
</g>
<g transform="translate(145.9941178276084,0)">
	<line class="st0" x1="40" y1="380" x2="40" y2="386"/>
</g>
<g transform="translate(152.51754688772624,0)">
	<line class="st0" x1="40" y1="380" x2="40" y2="386"/>
</g>
<g transform="translate(158.2716191136504,0)">
	<line class="st0" x1="40" y1="380" x2="40" y2="386"/>
</g>
<g transform="translate(163.41881211540348,0)">
	<line class="st1" x1="40" y1="380" x2="40" y2="386"/>
	<text transform="matrix(0.4226 -0.9063 0.9063 0.4226 39.9227 405.7204)" class="st1 st2 st3">10M</text>
</g>
<g transform="translate(197.28123481414715,0)">
	<line class="st1" x1="40" y1="380" x2="40" y2="386"/>
	<text transform="matrix(0.4226 -0.9063 0.9063 0.4226 39.9225 405.7204)" class="st1 st2 st3">20M</text>
</g>
<g transform="translate(217.08948227648105,0)">
	<line class="st0" x1="40" y1="380" x2="40" y2="386"/>
</g>
<g transform="translate(231.14365751289094,0)">
	<line class="st0" x1="40" y1="380" x2="40" y2="386"/>
</g>
<g transform="translate(242.0449227405681,0)">
	<line class="st0" x1="40" y1="380" x2="40" y2="386"/>
</g>
<g transform="translate(250.95190497522495,0)">
	<line class="st0" x1="40" y1="380" x2="40" y2="386"/>
</g>
<g transform="translate(258.48265115151685,0)">
	<line class="st0" x1="40" y1="380" x2="40" y2="386"/>
</g>
<g transform="translate(265.00608021163475,0)">
	<line class="st0" x1="40" y1="380" x2="40" y2="386"/>
</g>
<g transform="translate(270.76015243755893,0)">
	<line class="st0" x1="40" y1="380" x2="40" y2="386"/>
</g>
<g transform="translate(275.907345439312,0)">
	<line class="st1" x1="40" y1="380" x2="40" y2="386"/>
	<text transform="matrix(0.4226 -0.9063 0.9063 0.4226 37.1021 411.7692)" class="st1 st2 st3">100M</text>
</g>
<g transform="translate(309.7697681380557,0)">
	<line class="st1" x1="40" y1="380" x2="40" y2="386"/>
	<text transform="matrix(0.4226 -0.9063 0.9063 0.4226 37.1022 411.7692)" class="st1 st2 st3">200M</text>
</g>
<g transform="translate(329.57801560038956,0)">
	<line class="st0" x1="40" y1="380" x2="40" y2="386"/>
</g>
<g transform="translate(343.63219083679934,0)">
	<line class="st0" x1="40" y1="380" x2="40" y2="386"/>
</g>
<g transform="translate(354.5334560644767,0)">
	<line class="st0" x1="40" y1="380" x2="40" y2="386"/>
</g>
<g transform="translate(363.4404382991336,0)">
	<line class="st0" x1="40" y1="380" x2="40" y2="386"/>
</g>
<g transform="translate(370.97118447542545,0)">
	<line class="st0" x1="40" y1="380" x2="40" y2="386"/>
</g>
<g transform="translate(377.4946135355431,0)">
	<line class="st0" x1="40" y1="380" x2="40" y2="386"/>
</g>
<g transform="translate(383.24868576146736,0)">
	<line class="st0" x1="40" y1="380" x2="40" y2="386"/>
</g>
<g transform="translate(388.39587876322025,0)">
	<line class="st1" x1="40" y1="380" x2="40" y2="386"/>
	<text transform="matrix(0.4226 -0.9063 0.9063 0.4226 43.023 399.072)" class="st1 st2 st3">1G</text>
</g>
<path class="st0" d="M40,380L40,380h400l0,0"/>
<g transform="translate(-5,350)">
	<text transform="matrix(1 0 0 1 387.3125 24)" class="st2 st3">Area (log)</text>
</g>
<g transform="translate(0,350)">
	<line class="st4" x1="40" y1="30" x2="34" y2="30"/>
	<text transform="matrix(1 0 0 1 24.3262 33.84)" class="st2 st3">0</text>
</g>
<line class="st0" x1="40" y1="336.2" x2="34" y2="336.2"/>
<text transform="matrix(1 0 0 1 17.6523 340.09)" class="st2 st3">10</text>
<line class="st0" x1="40" y1="292.5" x2="34" y2="292.5"/>
<text transform="matrix(1 0 0 1 17.6523 296.34)" class="st2 st3">20</text>
<line class="st0" x1="40" y1="248.7" x2="34" y2="248.7"/>
<text transform="matrix(1 0 0 1 17.6523 252.59)" class="st2 st3">30</text>
<line class="st0" x1="40" y1="205" x2="34" y2="205"/>
<text transform="matrix(1 0 0 1 17.6523 208.84)" class="st2 st3">40</text>
<line class="st0" x1="40" y1="161.2" x2="34" y2="161.2"/>
<text transform="matrix(1 0 0 1 17.6523 165.09)" class="st2 st3">50</text>
<line class="st0" x1="40" y1="117.5" x2="34" y2="117.5"/>
<text transform="matrix(1 0 0 1 17.6523 121.34)" class="st2 st3">60</text>
<line class="st0" x1="40" y1="73.7" x2="34" y2="73.7"/>
<text transform="matrix(1 0 0 1 17.6523 77.59)" class="st2 st3">70</text>
<line class="st4" x1="40" y1="30" x2="34" y2="30"/>
<text transform="matrix(1 0 0 1 17.6523 33.84)" class="st2 st3">80</text>
<path class="st0" d="M34,30h6v350h-6"/>
<text transform="matrix(6.123234e-17 -1 1 6.123234e-17 54.52 136.6931)" class="st2 st3">Taxonomic Diversity</text>
<circle class="st5" cx="194.4" cy="362.5" r="5"/>
<circle class="st5" cx="174.2" cy="375.6" r="5"/>
<circle class="st5" cx="439.8" cy="353.7" r="5"/>
<circle class="st5" cx="122.8" cy="371.2" r="5"/>
<circle class="st5" cx="277.2" cy="366.9" r="5"/>
<circle class="st5" cx="217.6" cy="375.6" r="5"/>
<circle class="st5" cx="96.5" cy="371.2" r="5"/>
<circle class="st5" cx="245.8" cy="358.1" r="5"/>
<circle class="st5" cx="245.9" cy="358.1" r="5"/>
<circle class="st5" cx="147.4" cy="371.2" r="5"/>
<circle class="st5" cx="369.1" cy="353.7" r="5"/>
<circle class="st5" cx="356.8" cy="358.1" r="5"/>
<circle class="st5" cx="226" cy="375.6" r="5"/>
<circle class="st5" cx="52.9" cy="380" r="5"/>
<circle class="st5" cx="194" cy="371.2" r="5"/>
<circle class="st5" cx="120.9" cy="371.2" r="5"/>
<circle class="st5" cx="295.9" cy="366.9" r="5"/>
<circle class="st5" cx="207.2" cy="362.5" r="5"/>
<circle class="st5" cx="352.1" cy="358.1" r="5"/>
<circle class="st5" cx="40" cy="380" r="5"/>
<circle class="st5" cx="439.2" cy="353.7" r="5"/>
<circle class="st5" cx="440" cy="353.7" r="5"/>
<circle class="st5" cx="115.9" cy="371.2" r="5"/>
<circle class="st5" cx="182" cy="375.6" r="5"/>
<circle class="st5" cx="177.2" cy="362.5" r="5"/>
<circle class="st5" cx="246" cy="371.2" r="5"/>
<circle class="st5" cx="231.4" cy="375.6" r="5"/>
<circle class="st5" cx="319.7" cy="358.1" r="5"/>
<circle class="st5" cx="165.9" cy="375.6" r="5"/>
<circle class="st5" cx="194.1" cy="358.1" r="5"/>
<circle class="st5" cx="257.3" cy="358.1" r="5"/>
<circle class="st5" cx="189.1" cy="362.5" r="5"/>
<path class="st6" d="M194.4,243.5l6.1,10.5h-12.2L194.4,243.5z"/>
<path class="st6" d="M174.2,309.1l6.1,10.5h-12.2L174.2,309.1z"/>
<path class="st6" d="M439.8,160.4l6.1,10.5h-12.2L439.8,160.4z"/>
<path class="st6" d="M122.8,309.1l6.1,10.5h-12.2L122.8,309.1z"/>
<path class="st6" d="M277.2,191l6.1,10.5h-12.2L277.2,191z"/>
<path class="st6" d="M217.6,296l6.1,10.5h-12.2L217.6,296z"/>
<path class="st6" d="M96.5,309.1l6.1,10.5H90.5L96.5,309.1z"/>
<path class="st6" d="M245.8,291.6l6.1,10.5h-12.2L245.8,291.6z"/>
<path class="st6" d="M245.9,243.5L252,254h-12.2L245.9,243.5z"/>
<path class="st6" d="M147.4,304.7l6.1,10.5h-12.2L147.4,304.7z"/>
<path class="st6" d="M369.1,121l6.1,10.5h-12.2L369.1,121z"/>
<path class="st6" d="M356.8,116.6l6.1,10.5h-12.2L356.8,116.6z"/>
<path class="st6" d="M226,309.1l6.1,10.5h-12.2L226,309.1z"/>
<path class="st6" d="M52.9,374.7l6.1,10.5H46.9L52.9,374.7z"/>
<path class="st6" d="M194,291.6l6.1,10.5h-12.2L194,291.6z"/>
<path class="st6" d="M120.9,309.1l6.1,10.5h-12.2L120.9,309.1z"/>
<path class="st6" d="M295.9,278.5L302,289h-12.2L295.9,278.5z"/>
<path class="st6" d="M207.2,274.1l6.1,10.5h-12.2L207.2,274.1z"/>
<path class="st6" d="M352.1,164.7l6.1,10.5H346L352.1,164.7z"/>
<path class="st6" d="M40,370.4l6.1,10.5H33.9L40,370.4z"/>
<path class="st6" d="M439.2,42.2l6.1,10.5h-12.2L439.2,42.2z"/>
<path class="st6" d="M440,191l6.1,10.5h-12.2L440,191z"/>
<path class="st6" d="M115.9,309.1l6.1,10.5h-12.2L115.9,309.1z"/>
<path class="st6" d="M182,331l6.1,10.5H176L182,331z"/>
<path class="st6" d="M177.2,291.6l6.1,10.5h-12.2L177.2,291.6z"/>
<path class="st6" d="M246,313.5l6.1,10.5h-12.2L246,313.5z"/>
<path class="st6" d="M231.4,309.1l6.1,10.5h-12.2L231.4,309.1z"/>
<path class="st6" d="M319.7,208.5l6.1,10.5h-12.2L319.7,208.5z"/>
<path class="st6" d="M165.9,309.1l6.1,10.5h-12.2L165.9,309.1z"/>
<path class="st6" d="M194.1,247.9l6.1,10.5h-12.2L194.1,247.9z"/>
<path class="st6" d="M257.3,112.2l6.1,10.5h-12.2L257.3,112.2z"/>
<path class="st6" d="M189.1,261l6.1,10.5H183L189.1,261z"/>
<path class="st7" d="M189.1,360.7h3.6v-3.6h3.6v3.6h3.6v3.6h-3.6v3.6h-3.6v-3.6h-3.6V360.7z"/>
<path class="st7" d="M168.8,369.5h3.6v-3.6h3.6v3.6h3.6v3.6h-3.6v3.6h-3.6V373h-3.6V369.5z"/>
<path class="st7" d="M434.4,312.6h3.6V309h3.6v3.6h3.6v3.6h-3.6v3.6H438v-3.6h-3.6V312.6z"/>
<path class="st7" d="M117.5,369.5h3.6v-3.6h3.6v3.6h3.6v3.6h-3.6v3.6h-3.6V373h-3.6V369.5z"/>
<path class="st7" d="M271.8,334.5h3.6v-3.6h3.6v3.6h3.6v3.6H279v3.6h-3.6V338h-3.6V334.5z"/>
<path class="st7" d="M212.3,369.5h3.6v-3.6h3.6v3.6h3.6v3.6h-3.6v3.6h-3.6V373h-3.6V369.5z"/>
<path class="st7" d="M91.2,373.8h3.6v-3.6h3.6v3.6h3.6v3.6h-3.6v3.6h-3.6v-3.6h-3.6V373.8z"/>
<path class="st7" d="M240.5,360.7h3.6v-3.6h3.6v3.6h3.6v3.6h-3.6v3.6H244v-3.6h-3.6V360.7z"/>
<path class="st7" d="M240.6,338.8h3.6v-3.6h3.6v3.6h3.6v3.6h-3.6v3.6h-3.6v-3.6h-3.6V338.8z"/>
<path class="st7" d="M142,365.1h3.6v-3.6h3.6v3.6h3.6v3.6h-3.6v3.6h-3.6v-3.6H142V365.1z"/>
<path class="st7" d="M363.8,308.2h3.6v-3.6h3.6v3.6h3.6v3.6h-3.6v3.6h-3.6v-3.6h-3.6V308.2z"/>
<path class="st7" d="M351.5,299.5h3.6v-3.6h3.6v3.6h3.6v3.6h-3.6v3.6H355V303h-3.6V299.5z"/>
<path class="st7" d="M220.6,373.8h3.6v-3.6h3.6v3.6h3.6v3.6h-3.6v3.6h-3.6v-3.6h-3.6V373.8z"/>
<path class="st7" d="M47.6,378.2h3.6v-3.6h3.6v3.6h3.6v3.6h-3.6v3.6h-3.6v-3.6h-3.6V378.2z"/>
<path class="st7" d="M188.6,356.3h3.6v-3.6h3.6v3.6h3.6v3.6h-3.6v3.6h-3.6v-3.6h-3.6V356.3z"/>
<path class="st7" d="M115.5,373.8h3.6v-3.6h3.6v3.6h3.6v3.6h-3.6v3.6h-3.6v-3.6h-3.6V373.8z"/>
<path class="st7" d="M290.6,365.1h3.6v-3.6h3.6v3.6h3.6v3.6h-3.6v3.6h-3.6v-3.6h-3.6V365.1z"/>
<path class="st7" d="M201.8,360.7h3.6v-3.6h3.6v3.6h3.6v3.6H209v3.6h-3.6v-3.6h-3.6V360.7z"/>
<path class="st7" d="M346.7,321.3h3.6v-3.6h3.6v3.6h3.6v3.6h-3.6v3.6h-3.6v-3.6h-3.6V321.3z"/>
<path class="st7" d="M34.6,378.2h3.6v-3.6h3.6v3.6h3.6v3.6h-3.6v3.6h-3.6v-3.6h-3.6V378.2z"/>
<path class="st7" d="M433.8,273.2h3.6v-3.6h3.6v3.6h3.6v3.6H441v3.6h-3.6v-3.6h-3.6V273.2z"/>
<path class="st7" d="M434.6,312.6h3.6V309h3.6v3.6h3.6v3.6h-3.6v3.6h-3.6v-3.6h-3.6V312.6z"/>
<path class="st7" d="M110.5,373.8h3.6v-3.6h3.6v3.6h3.6v3.6h-3.6v3.6h-3.6v-3.6h-3.6V373.8z"/>
<path class="st7" d="M176.7,378.2h3.6v-3.6h3.6v3.6h3.6v3.6h-3.6v3.6h-3.6v-3.6h-3.6V378.2z"/>
<path class="st7" d="M171.8,365.1h3.6v-3.6h3.6v3.6h3.6v3.6h-3.6v3.6h-3.6v-3.6h-3.6V365.1z"/>
<path class="st7" d="M240.6,373.8h3.6v-3.6h3.6v3.6h3.6v3.6h-3.6v3.6h-3.6v-3.6h-3.6V373.8z"/>
<path class="st7" d="M226,360.7h3.6v-3.6h3.6v3.6h3.6v3.6h-3.6v3.6h-3.6v-3.6H226V360.7z"/>
<path class="st7" d="M314.3,356.3h3.6v-3.6h3.6v3.6h3.6v3.6h-3.6v3.6h-3.6v-3.6h-3.6V356.3z"/>
<path class="st7" d="M160.5,373.8h3.6v-3.6h3.6v3.6h3.6v3.6h-3.6v3.6h-3.6v-3.6h-3.6V373.8z"/>
<path class="st7" d="M188.8,334.5h3.6v-3.6h3.6v3.6h3.6v3.6h-3.6v3.6h-3.6V338h-3.6V334.5z"/>
<path class="st7" d="M251.9,299.5h3.6v-3.6h3.6v3.6h3.6v3.6h-3.6v3.6h-3.6V303h-3.6V299.5z"/>
<path class="st7" d="M183.8,369.5h3.6v-3.6h3.6v3.6h3.6v3.6h-3.6v3.6h-3.6V373h-3.6V369.5z"/>
<path class="st8" d="M194.4,359l6.1-10.5h-12.2L194.4,359z"/>
<path class="st8" d="M174.2,376.5l6.1-10.5h-12.2L174.2,376.5z"/>
<path class="st8" d="M439.8,280.3l6.1-10.5h-12.2L439.8,280.3z"/>
<path class="st8" d="M122.8,385.3l6.1-10.5h-12.2L122.8,385.3z"/>
<path class="st8" d="M277.2,319.6l6.1-10.5h-12.2L277.2,319.6z"/>
<path class="st8" d="M217.6,385.3l6.1-10.5h-12.2L217.6,385.3z"/>
<path class="st8" d="M96.5,385.3l6.1-10.5H90.5L96.5,385.3z"/>
<path class="st8" d="M245.8,354.6l6.1-10.5h-12.2L245.8,354.6z"/>
<path class="st8" d="M245.9,319.6l6.1-10.5h-12.2L245.9,319.6z"/>
<path class="st8" d="M147.4,363.4l6.1-10.5h-12.2L147.4,363.4z"/>
<path class="st8" d="M369.1,271.5l6.1-10.5h-12.2L369.1,271.5z"/>
<path class="st8" d="M356.8,280.3l6.1-10.5h-12.2L356.8,280.3z"/>
<path class="st8" d="M226,367.8l6.1-10.5h-12.2L226,367.8z"/>
<path class="st8" d="M52.9,385.3l6.1-10.5H46.9L52.9,385.3z"/>
<path class="st8" d="M194,359l6.1-10.5h-12.2L194,359z"/>
<path class="st8" d="M120.9,363.4l6.1-10.5h-12.2L120.9,363.4z"/>
<path class="st8" d="M295.9,359l6.1-10.5h-12.2L295.9,359z"/>
<path class="st8" d="M207.2,367.8l6.1-10.5h-12.2L207.2,367.8z"/>
<path class="st8" d="M352.1,284.6l6.1-10.5H346L352.1,284.6z"/>
<path class="st8" d="M40,380.9l6.1-10.5H33.9L40,380.9z"/>
<path class="st8" d="M439.2,179.6l6.1-10.5h-12.2L439.2,179.6z"/>
<path class="st8" d="M440,302.1l6.1-10.5h-12.2L440,302.1z"/>
<path class="st8" d="M115.9,385.3l6.1-10.5h-12.2L115.9,385.3z"/>
<path class="st8" d="M182,380.9l6.1-10.5H176L182,380.9z"/>
<path class="st8" d="M177.2,372.1l6.1-10.5h-12.2L177.2,372.1z"/>
<path class="st8" d="M246,385.3l6.1-10.5h-12.2L246,385.3z"/>
<path class="st8" d="M231.4,363.4l6.1-10.5h-12.2L231.4,363.4z"/>
<path class="st8" d="M319.7,315.3l6.1-10.5h-12.2L319.7,315.3z"/>
<path class="st8" d="M165.9,376.5L172,366h-12.2L165.9,376.5z"/>
<path class="st8" d="M194.1,341.5l6.1-10.5h-12.2L194.1,341.5z"/>
<path class="st8" d="M257.3,245.3l6.1-10.5h-12.2L257.3,245.3z"/>
<path class="st8" d="M189.1,363.4l6.1-10.5H183L189.1,363.4z"/>
<path class="st9" d="M194.4,337.6l4.3,7.4l-4.3,7.4l-4.3-7.4L194.4,337.6z"/>
<path class="st9" d="M174.2,359.4l4.3,7.4l-4.3,7.4l-4.3-7.4L174.2,359.4z"/>
<path class="st9" d="M439.8,315.7l4.3,7.4l-4.3,7.4l-4.3-7.4L439.8,315.7z"/>
<path class="st9" d="M122.8,363.8l4.3,7.4l-4.3,7.4l-4.3-7.4L122.8,363.8z"/>
<path class="st9" d="M277.2,320.1l4.3,7.4l-4.3,7.4l-4.3-7.4L277.2,320.1z"/>
<path class="st9" d="M217.6,359.4l4.3,7.4l-4.3,7.4l-4.3-7.4L217.6,359.4z"/>
<path class="st9" d="M96.5,363.8l4.3,7.4l-4.3,7.4l-4.3-7.4L96.5,363.8z"/>
<path class="st9" d="M245.8,346.3l4.3,7.4l-4.3,7.4l-4.3-7.4L245.8,346.3z"/>
<path class="st9" d="M245.9,333.2l4.3,7.4l-4.3,7.4l-4.3-7.4L245.9,333.2z"/>
<path class="st9" d="M147.4,359.4l4.3,7.4l-4.3,7.4l-4.3-7.4L147.4,359.4z"/>
<path class="st9" d="M369.1,293.8l4.3,7.4l-4.3,7.4l-4.3-7.4L369.1,293.8z"/>
<path class="st9" d="M356.8,302.6l4.3,7.4l-4.3,7.4l-4.3-7.4L356.8,302.6z"/>
<path class="st9" d="M226,359.4l4.3,7.4l-4.3,7.4l-4.3-7.4L226,359.4z"/>
<path class="st9" d="M52.9,372.6l4.3,7.4l-4.3,7.4l-4.3-7.4L52.9,372.6z"/>
<path class="st9" d="M194,355.1l4.3,7.4l-4.3,7.4l-4.3-7.4L194,355.1z"/>
<path class="st9" d="M120.9,363.8l4.3,7.4l-4.3,7.4l-4.3-7.4L120.9,363.8z"/>
<path class="st9" d="M295.9,359.4l4.3,7.4l-4.3,7.4l-4.3-7.4L295.9,359.4z"/>
<path class="st9" d="M207.2,346.3l4.3,7.4l-4.3,7.4l-4.3-7.4L207.2,346.3z"/>
<path class="st9" d="M352.1,315.7l4.3,7.4l-4.3,7.4l-4.3-7.4L352.1,315.7z"/>
<path class="st9" d="M40,372.6l4.3,7.4l-4.3,7.4l-4.3-7.4L40,372.6z"/>
<path class="st9" d="M439.2,289.4l4.3,7.4l-4.3,7.4l-4.3-7.4L439.2,289.4z"/>
<path class="st9" d="M440,302.6l4.3,7.4l-4.3,7.4l-4.3-7.4L440,302.6z"/>
<path class="st9" d="M115.9,363.8l4.3,7.4l-4.3,7.4l-4.3-7.4L115.9,363.8z"/>
<path class="st9" d="M182,372.6l4.3,7.4l-4.3,7.4l-4.3-7.4L182,372.6z"/>
<path class="st9" d="M177.2,359.4l4.3,7.4l-4.3,7.4l-4.3-7.4L177.2,359.4z"/>
<path class="st9" d="M246,359.4l4.3,7.4l-4.3,7.4l-4.3-7.4L246,359.4z"/>
<path class="st9" d="M231.4,350.7l4.3,7.4l-4.3,7.4l-4.3-7.4L231.4,350.7z"/>
<path class="st9" d="M319.7,328.8l4.3,7.4l-4.3,7.4l-4.3-7.4L319.7,328.8z"/>
<path class="st9" d="M165.9,363.8l4.3,7.4l-4.3,7.4l-4.3-7.4L165.9,363.8z"/>
<path class="st9" d="M194.1,350.7l4.3,7.4l-4.3,7.4l-4.3-7.4L194.1,350.7z"/>
<path class="st9" d="M257.3,289.4l4.3,7.4l-4.3,7.4l-4.3-7.4L257.3,289.4z"/>
<path class="st9" d="M189.1,350.7l4.3,7.4l-4.3,7.4l-4.3-7.4L189.1,350.7z"/>
<line class="st10" x1="40" y1="368.2" x2="440" y2="351.6"/>
<line class="st11" x1="40" y1="282.2" x2="440" y2="111.2"/>
<line class="st12" x1="40" y1="361.4" x2="440" y2="293.4"/>
<line class="st13" x1="40" y1="351.3" x2="440" y2="235.8"/>
<line class="st14" x1="40" y1="357.4" x2="440" y2="301.7"/>
</svg>
