<?xml version="1.0" encoding="utf-8"?>
<!-- Generator: Adobe Illustrator 21.1.0, SVG Export Plug-In . SVG Version: 6.00 Build 0)  -->
<svg version="1.1" id="Layer_1" xmlns="http://www.w3.org/2000/svg" xmlns:xlink="http://www.w3.org/1999/xlink" x="0px" y="0px"
	 viewBox="0 0 470 480" style="enable-background:new 0 0 470 480;" xml:space="preserve">
<style type="text/css">
	.st0{fill:none;stroke:#000000;stroke-miterlimit:10;}
	.st1{font-family:'ArialMT';}
	.st2{font-size:12px;}
	.st3{fill:none;}
	.st4{opacity:0.9;fill:#E69F00;enable-background:new    ;}
	.st5{opacity:0.9;fill:#56B4E9;enable-background:new    ;}
	.st6{opacity:0.9;fill:#009E73;enable-background:new    ;}
	.st7{opacity:0.9;fill:#0072B2;enable-background:new    ;}
	.st8{opacity:0.9;fill:#F0E442;enable-background:new    ;}
	.st9{fill:none;stroke:#E69F00;}
	.st10{fill:none;stroke:#56B4E9;}
	.st11{fill:none;stroke:#009E73;}
	.st12{fill:none;stroke:#0072B2;}
	.st13{fill:none;stroke:#F0E442;}
</style>
<g transform="translate(6.1665908650739505,0)">
	<line class="st0" x1="40" y1="380" x2="40" y2="386"/>
</g>
<g transform="translate(17.06785609275109,0)">
	<line class="st0" x1="40" y1="380" x2="40" y2="386"/>
</g>
<g transform="translate(25.974838327407966,0)">
	<line class="st0" x1="40" y1="380" x2="40" y2="386"/>
</g>
<g transform="translate(33.50558450369988,0)">
	<line class="st0" x1="40" y1="380" x2="40" y2="386"/>
</g>
<g transform="translate(40.029013563817735,0)">
	<line class="st0" x1="40" y1="380" x2="40" y2="386"/>
</g>
<g transform="translate(45.78308578974198,0)">
	<line class="st0" x1="40" y1="380" x2="40" y2="386"/>
</g>
<line class="st0" x1="90.9" y1="380" x2="90.9" y2="386"/>
<text transform="matrix(0.4226 -0.9063 0.9063 0.4226 93.6734 399.6725)" class="st1 st2">1M</text>
<line class="st0" x1="124.8" y1="380" x2="124.8" y2="386"/>
<text transform="matrix(0.4226 -0.9063 0.9063 0.4226 127.5357 399.6725)" class="st1 st2">2M</text>
<g transform="translate(104.60094895257268,0)">
	<line class="st0" x1="40" y1="380" x2="40" y2="386"/>
</g>
<g transform="translate(118.65512418898246,0)">
	<line class="st0" x1="40" y1="380" x2="40" y2="386"/>
</g>
<g transform="translate(129.55638941665967,0)">
	<line class="st0" x1="40" y1="380" x2="40" y2="386"/>
</g>
<g transform="translate(138.46337165131646,0)">
	<line class="st0" x1="40" y1="380" x2="40" y2="386"/>
</g>
<g transform="translate(145.9941178276084,0)">
	<line class="st3" x1="40" y1="380" x2="40" y2="386"/>
</g>
<g transform="translate(152.51754688772624,0)">
	<line class="st0" x1="40" y1="380" x2="40" y2="386"/>
</g>
<g transform="translate(158.2716191136504,0)">
	<line class="st0" x1="40" y1="380" x2="40" y2="386"/>
</g>
<line class="st0" x1="203.4" y1="380" x2="203.4" y2="386"/>
<text transform="matrix(0.4226 -0.9063 0.9063 0.4226 203.3414 405.7213)" class="st1 st2">10M</text>
<line class="st0" x1="237.3" y1="380" x2="237.3" y2="386"/>
<text transform="matrix(0.4226 -0.9063 0.9063 0.4226 237.2039 405.7213)" class="st1 st2">20M</text>
<g transform="translate(217.08948227648105,0)">
	<line class="st0" x1="40" y1="380" x2="40" y2="386"/>
</g>
<g transform="translate(231.14365751289094,0)">
	<line class="st0" x1="40" y1="380" x2="40" y2="386"/>
</g>
<g transform="translate(242.0449227405681,0)">
	<line class="st0" x1="40" y1="380" x2="40" y2="386"/>
</g>
<g transform="translate(250.95190497522495,0)">
	<line class="st0" x1="40" y1="380" x2="40" y2="386"/>
</g>
<g transform="translate(258.48265115151685,0)">
	<line class="st0" x1="40" y1="380" x2="40" y2="386"/>
</g>
<g transform="translate(265.00608021163475,0)">
	<line class="st0" x1="40" y1="380" x2="40" y2="386"/>
</g>
<g transform="translate(270.76015243755893,0)">
	<line class="st0" x1="40" y1="380" x2="40" y2="386"/>
</g>
<line class="st0" x1="315.9" y1="380" x2="315.9" y2="386"/>
<text transform="matrix(0.4226 -0.9063 0.9063 0.4226 313.0096 411.7692)" class="st1 st2">100M</text>
<line class="st0" x1="349.8" y1="380" x2="349.8" y2="386"/>
<text transform="matrix(0.4226 -0.9063 0.9063 0.4226 346.8719 411.7692)" class="st1 st2">200M</text>
<g transform="translate(329.57801560038956,0)">
	<line class="st0" x1="40" y1="380" x2="40" y2="386"/>
</g>
<g transform="translate(343.63219083679934,0)">
	<line class="st0" x1="40" y1="380" x2="40" y2="386"/>
</g>
<g transform="translate(354.5334560644767,0)">
	<line class="st0" x1="40" y1="380" x2="40" y2="386"/>
</g>
<g transform="translate(363.4404382991336,0)">
	<line class="st0" x1="40" y1="380" x2="40" y2="386"/>
</g>
<g transform="translate(370.97118447542545,0)">
	<line class="st0" x1="40" y1="380" x2="40" y2="386"/>
</g>
<g transform="translate(377.4946135355431,0)">
	<line class="st0" x1="40" y1="380" x2="40" y2="386"/>
</g>
<g transform="translate(383.24868576146736,0)">
	<line class="st0" x1="40" y1="380" x2="40" y2="386"/>
</g>
<g transform="translate(388.39587876322025,0)">
	<line class="st3" x1="40" y1="380" x2="40" y2="386"/>
	<text transform="matrix(0.4226 -0.9063 0.9063 0.4226 43.0229 399.0719)" class="st1 st2">1G</text>
</g>
<path class="st0" d="M40,380L40,380h400l0,0"/>
<g transform="translate(-5,350)">
	<text transform="matrix(1 0 0 1 387.3125 24)" class="st1 st2">Area (log)</text>
</g>
<g transform="translate(0,350)">
	<line class="st3" x1="40" y1="30" x2="34" y2="30"/>
	<text transform="matrix(1 0 0 1 7.6445 33.84)" class="st1 st2">0.00</text>
</g>
<line class="st0" x1="40" y1="353.1" x2="34" y2="353.1"/>
<text transform="matrix(1 0 0 1 7.6445 356.9169)" class="st1 st2">0.05</text>
<line class="st0" x1="40" y1="326.2" x2="34" y2="326.2"/>
<text transform="matrix(1 0 0 1 7.6445 329.9938)" class="st1 st2">0.10</text>
<line class="st0" x1="40" y1="299.2" x2="34" y2="299.2"/>
<text transform="matrix(1 0 0 1 7.6445 303.0708)" class="st1 st2">0.15</text>
<line class="st0" x1="40" y1="272.3" x2="34" y2="272.3"/>
<text transform="matrix(1 0 0 1 7.6445 276.1477)" class="st1 st2">0.20</text>
<line class="st0" x1="40" y1="245.4" x2="34" y2="245.4"/>
<text transform="matrix(1 0 0 1 7.6445 249.2246)" class="st1 st2">0.25</text>
<line class="st0" x1="40" y1="218.5" x2="34" y2="218.5"/>
<text transform="matrix(1 0 0 1 7.6445 222.3015)" class="st1 st2">0.30</text>
<line class="st0" x1="40" y1="191.5" x2="34" y2="191.5"/>
<text transform="matrix(1 0 0 1 7.6445 195.3785)" class="st1 st2">0.35</text>
<line class="st0" x1="40" y1="164.6" x2="34" y2="164.6"/>
<text transform="matrix(1 0 0 1 7.6445 168.4554)" class="st1 st2">0.40</text>
<line class="st0" x1="40" y1="137.7" x2="34" y2="137.7"/>
<text transform="matrix(1 0 0 1 7.6445 141.5323)" class="st1 st2">0.45</text>
<line class="st0" x1="40" y1="110.8" x2="34" y2="110.8"/>
<text transform="matrix(1 0 0 1 7.6445 114.6092)" class="st1 st2">0.50</text>
<line class="st0" x1="40" y1="83.8" x2="34" y2="83.8"/>
<text transform="matrix(1 0 0 1 7.6445 87.6861)" class="st1 st2">0.55</text>
<line class="st0" x1="40" y1="56.9" x2="34" y2="56.9"/>
<text transform="matrix(1 0 0 1 7.6445 60.763)" class="st1 st2">0.60</text>
<line class="st3" x1="40" y1="30" x2="34" y2="30"/>
<text transform="matrix(1 0 0 1 7.6445 33.84)" class="st1 st2">0.65</text>
<path class="st0" d="M34,30h6v350h-6"/>
<text transform="matrix(6.123234e-17 -1 1 6.123234e-17 54.52 134.7015)" class="st1 st2">Functional Diversity</text>
<circle class="st4" cx="194.4" cy="376.5" r="5"/>
<circle class="st4" cx="174.2" cy="380" r="5"/>
<circle class="st4" cx="439.8" cy="371.7" r="5"/>
<circle class="st4" cx="122.8" cy="377.1" r="5"/>
<circle class="st4" cx="277.2" cy="377.7" r="5"/>
<circle class="st4" cx="217.6" cy="380" r="5"/>
<circle class="st4" cx="96.5" cy="377.1" r="5"/>
<circle class="st4" cx="245.8" cy="374.3" r="5"/>
<circle class="st4" cx="245.9" cy="374.3" r="5"/>
<circle class="st4" cx="147.4" cy="377.1" r="5"/>
<circle class="st4" cx="369.1" cy="373.9" r="5"/>
<circle class="st4" cx="356.8" cy="374.3" r="5"/>
<circle class="st4" cx="226" cy="380" r="5"/>
<circle class="st4" cx="52.9" cy="380" r="5"/>
<circle class="st4" cx="194" cy="377.1" r="5"/>
<circle class="st4" cx="120.9" cy="377.1" r="5"/>
<circle class="st4" cx="295.9" cy="376.8" r="5"/>
<circle class="st4" cx="207.2" cy="374.8" r="5"/>
<circle class="st4" cx="352.1" cy="374.3" r="5"/>
<circle class="st4" cx="40" cy="380" r="5"/>
<circle class="st4" cx="439.2" cy="373.9" r="5"/>
<circle class="st4" cx="440" cy="371.1" r="5"/>
<circle class="st4" cx="115.9" cy="377.1" r="5"/>
<circle class="st4" cx="182" cy="380" r="5"/>
<circle class="st4" cx="177.2" cy="374.8" r="5"/>
<circle class="st4" cx="246" cy="377.1" r="5"/>
<circle class="st4" cx="231.4" cy="374.3" r="5"/>
<circle class="st4" cx="319.7" cy="380" r="5"/>
<circle class="st4" cx="165.9" cy="380" r="5"/>
<circle class="st4" cx="194.1" cy="371.6" r="5"/>
<circle class="st4" cx="257.3" cy="374.3" r="5"/>
<circle class="st4" cx="189.1" cy="376.5" r="5"/>
<path class="st5" d="M194.4,354.8l6.1,10.5h-12.2L194.4,354.8z"/>
<path class="st5" d="M174.2,363.8l6.1,10.5h-12.2L174.2,363.8z"/>
<path class="st5" d="M439.8,317.9l6.1,10.5h-12.2L439.8,317.9z"/>
<path class="st5" d="M122.8,363.5l6.1,10.5h-12.2L122.8,363.5z"/>
<path class="st5" d="M277.2,334.3l6.1,10.5h-12.2L277.2,334.3z"/>
<path class="st5" d="M217.6,363.2l6.1,10.5h-12.2L217.6,363.2z"/>
<path class="st5" d="M96.5,365.2l6.1,10.5H90.5L96.5,365.2z"/>
<path class="st5" d="M245.8,362l6.1,10.5h-12.2L245.8,362z"/>
<path class="st5" d="M245.9,354.9l6.1,10.5h-12.2L245.9,354.9z"/>
<path class="st5" d="M147.4,336.3l6.1,10.5h-12.2L147.4,336.3z"/>
<path class="st5" d="M369.1,316.9l6.1,10.5h-12.2L369.1,316.9z"/>
<path class="st5" d="M356.8,309.6l6.1,10.5h-12.2L356.8,309.6z"/>
<path class="st5" d="M226,363.8l6.1,10.5h-12.2L226,363.8z"/>
<path class="st5" d="M52.9,374.7l6.1,10.5H46.9L52.9,374.7z"/>
<path class="st5" d="M194,363.7l6.1,10.5h-12.2L194,363.7z"/>
<path class="st5" d="M120.9,364.3l6.1,10.5h-12.2L120.9,364.3z"/>
<path class="st5" d="M295.9,357.3l6.1,10.5h-12.2L295.9,357.3z"/>
<path class="st5" d="M207.2,360.5l6.1,10.5h-12.2L207.2,360.5z"/>
<path class="st5" d="M352.1,316.4l6.1,10.5H346L352.1,316.4z"/>
<path class="st5" d="M40,374.7l6.1,10.5H33.9L40,374.7z"/>
<path class="st5" d="M439.2,301.1l6.1,10.5h-12.2L439.2,301.1z"/>
<path class="st5" d="M440,320.8l6.1,10.5h-12.2L440,320.8z"/>
<path class="st5" d="M115.9,365.2l6.1,10.5h-12.2L115.9,365.2z"/>
<path class="st5" d="M182,367.7l6.1,10.5H176L182,367.7z"/>
<path class="st5" d="M177.2,361.8l6.1,10.5h-12.2L177.2,361.8z"/>
<path class="st5" d="M246,364.7l6.1,10.5h-12.2L246,364.7z"/>
<path class="st5" d="M231.4,351.9l6.1,10.5h-12.2L231.4,351.9z"/>
<path class="st5" d="M319.7,364.4l6.1,10.5h-12.2L319.7,364.4z"/>
<path class="st5" d="M165.9,363.8l6.1,10.5h-12.2L165.9,363.8z"/>
<path class="st5" d="M194.1,352.7l6.1,10.5h-12.2L194.1,352.7z"/>
<path class="st5" d="M257.3,311.9l6.1,10.5h-12.2L257.3,311.9z"/>
<path class="st5" d="M189.1,330.9l6.1,10.5H183L189.1,330.9z"/>
<path class="st6" d="M189.1,369.1h3.6v-3.6h3.6v3.6h3.6v3.6h-3.6v3.6h-3.6v-3.6h-3.6V369.1z"/>
<path class="st6" d="M168.8,366h3.6v-3.6h3.6v3.6h3.6v3.6h-3.6v3.6h-3.6v-3.6h-3.6V366z"/>
<path class="st6" d="M434.4,344.2h3.6v-3.6h3.6v3.6h3.6v3.6h-3.6v3.6H438v-3.6h-3.6V344.2z"/>
<path class="st6" d="M117.5,366h3.6v-3.6h3.6v3.6h3.6v3.6h-3.6v3.6h-3.6v-3.6h-3.6V366z"/>
<path class="st6" d="M271.8,349.9h3.6v-3.6h3.6v3.6h3.6v3.6H279v3.6h-3.6v-3.6h-3.6V349.9z"/>
<path class="st6" d="M212.3,366h3.6v-3.6h3.6v3.6h3.6v3.6h-3.6v3.6h-3.6v-3.6h-3.6V366z"/>
<path class="st6" d="M91.2,378.2h3.6v-3.6h3.6v3.6h3.6v3.6h-3.6v3.6h-3.6v-3.6h-3.6V378.2z"/>
<path class="st6" d="M240.5,369.6h3.6V366h3.6v3.6h3.6v3.6h-3.6v3.6H244v-3.6h-3.6V369.6z"/>
<path class="st6" d="M240.6,351.6h3.6V348h3.6v3.6h3.6v3.6h-3.6v3.6h-3.6v-3.6h-3.6V351.6z"/>
<path class="st6" d="M142,370.1h3.6v-3.6h3.6v3.6h3.6v3.6h-3.6v3.6h-3.6v-3.6H142V370.1z"/>
<path class="st6" d="M363.8,346.6h3.6V343h3.6v3.6h3.6v3.6h-3.6v3.6h-3.6v-3.6h-3.6V346.6z"/>
<path class="st6" d="M351.5,341.5h3.6v-3.6h3.6v3.6h3.6v3.6h-3.6v3.6H355V345h-3.6V341.5z"/>
<path class="st6" d="M220.6,378.2h3.6v-3.6h3.6v3.6h3.6v3.6h-3.6v3.6h-3.6v-3.6h-3.6V378.2z"/>
<path class="st6" d="M47.6,378.2h3.6v-3.6h3.6v3.6h3.6v3.6h-3.6v3.6h-3.6v-3.6h-3.6V378.2z"/>
<path class="st6" d="M188.6,364.5h3.6v-3.6h3.6v3.6h3.6v3.6h-3.6v3.6h-3.6v-3.6h-3.6V364.5z"/>
<path class="st6" d="M115.5,378.2h3.6v-3.6h3.6v3.6h3.6v3.6h-3.6v3.6h-3.6v-3.6h-3.6V378.2z"/>
<path class="st6" d="M290.6,365.8h3.6v-3.6h3.6v3.6h3.6v3.6h-3.6v3.6h-3.6v-3.6h-3.6V365.8z"/>
<path class="st6" d="M201.8,364.6h3.6V361h3.6v3.6h3.6v3.6H209v3.6h-3.6v-3.6h-3.6V364.6z"/>
<path class="st6" d="M346.7,346.3h3.6v-3.6h3.6v3.6h3.6v3.6h-3.6v3.6h-3.6v-3.6h-3.6V346.3z"/>
<path class="st6" d="M34.6,378.2h3.6v-3.6h3.6v3.6h3.6v3.6h-3.6v3.6h-3.6v-3.6h-3.6V378.2z"/>
<path class="st6" d="M433.8,337.3h3.6v-3.6h3.6v3.6h3.6v3.6H441v3.6h-3.6v-3.6h-3.6V337.3z"/>
<path class="st6" d="M434.6,354.8h3.6v-3.6h3.6v3.6h3.6v3.6h-3.6v3.6h-3.6v-3.6h-3.6V354.8z"/>
<path class="st6" d="M110.5,378.2h3.6v-3.6h3.6v3.6h3.6v3.6h-3.6v3.6h-3.6v-3.6h-3.6V378.2z"/>
<path class="st6" d="M176.7,378.2h3.6v-3.6h3.6v3.6h3.6v3.6h-3.6v3.6h-3.6v-3.6h-3.6V378.2z"/>
<path class="st6" d="M171.8,365.8h3.6v-3.6h3.6v3.6h3.6v3.6h-3.6v3.6h-3.6v-3.6h-3.6V365.8z"/>
<path class="st6" d="M240.6,378.2h3.6v-3.6h3.6v3.6h3.6v3.6h-3.6v3.6h-3.6v-3.6h-3.6V378.2z"/>
<path class="st6" d="M226,355.7h3.6v-3.6h3.6v3.6h3.6v3.6h-3.6v3.6h-3.6v-3.6H226V355.7z"/>
<path class="st6" d="M314.3,366.5h3.6v-3.6h3.6v3.6h3.6v3.6h-3.6v3.6h-3.6V370h-3.6V366.5z"/>
<path class="st6" d="M160.5,378.2h3.6v-3.6h3.6v3.6h3.6v3.6h-3.6v3.6h-3.6v-3.6h-3.6V378.2z"/>
<path class="st6" d="M188.8,359.4h3.6v-3.6h3.6v3.6h3.6v3.6h-3.6v3.6h-3.6V363h-3.6V359.4z"/>
<path class="st6" d="M251.9,341.9h3.6v-3.6h3.6v3.6h3.6v3.6h-3.6v3.6h-3.6v-3.6h-3.6V341.9z"/>
<path class="st6" d="M183.8,366h3.6v-3.6h3.6v3.6h3.6v3.6h-3.6v3.6h-3.6v-3.6h-3.6V366z"/>
<path class="st7" d="M194.4,373.5l6.1-10.5h-12.2L194.4,373.5z"/>
<path class="st7" d="M174.2,384.4l6.1-10.5h-12.2L174.2,384.4z"/>
<path class="st7" d="M439.8,291.2l6.1-10.5h-12.2L439.8,291.2z"/>
<path class="st7" d="M122.8,385.3l6.1-10.5h-12.2L122.8,385.3z"/>
<path class="st7" d="M277.2,346.3l6.1-10.5h-12.2L277.2,346.3z"/>
<path class="st7" d="M217.6,385.3l6.1-10.5h-12.2L217.6,385.3z"/>
<path class="st7" d="M96.5,385.3l6.1-10.5H90.5L96.5,385.3z"/>
<path class="st7" d="M245.8,361.8l6.1-10.5h-12.2L245.8,361.8z"/>
<path class="st7" d="M245.9,347.6l6.1-10.5h-12.2L245.9,347.6z"/>
<path class="st7" d="M147.4,314.2l6.1-10.5h-12.2L147.4,314.2z"/>
<path class="st7" d="M369.1,285.7l6.1-10.5h-12.2L369.1,285.7z"/>
<path class="st7" d="M356.8,287l6.1-10.5h-12.2L356.8,287z"/>
<path class="st7" d="M226,365.4l6.1-10.5h-12.2L226,365.4z"/>
<path class="st7" d="M52.9,385.3l6.1-10.5H46.9L52.9,385.3z"/>
<path class="st7" d="M194,357.9l6.1-10.5h-12.2L194,357.9z"/>
<path class="st7" d="M120.9,364.1l6.1-10.5h-12.2L120.9,364.1z"/>
<path class="st7" d="M295.9,239.7l6.1-10.5h-12.2L295.9,239.7z"/>
<path class="st7" d="M207.2,378.2l6.1-10.5h-12.2L207.2,378.2z"/>
<path class="st7" d="M352.1,289.8l6.1-10.5H346L352.1,289.8z"/>
<path class="st7" d="M40,385.3l6.1-10.5H33.9L40,385.3z"/>
<path class="st7" d="M439.2,44.3l6.1-10.5h-12.2L439.2,44.3z"/>
<path class="st7" d="M440,298.4l6.1-10.5h-12.2L440,298.4z"/>
<path class="st7" d="M115.9,385.3l6.1-10.5h-12.2L115.9,385.3z"/>
<path class="st7" d="M182,385.3l6.1-10.5H176L182,385.3z"/>
<path class="st7" d="M177.2,379.1l6.1-10.5h-12.2L177.2,379.1z"/>
<path class="st7" d="M246,385.3l6.1-10.5h-12.2L246,385.3z"/>
<path class="st7" d="M231.4,344.1l6.1-10.5h-12.2L231.4,344.1z"/>
<path class="st7" d="M319.7,314.8l6.1-10.5h-12.2L319.7,314.8z"/>
<path class="st7" d="M165.9,384.4l6.1-10.5h-12.2L165.9,384.4z"/>
<path class="st7" d="M194.1,358.4l6.1-10.5h-12.2L194.1,358.4z"/>
<path class="st7" d="M257.3,332.8l6.1-10.5h-12.2L257.3,332.8z"/>
<path class="st7" d="M189.1,374.2l6.1-10.5H183L189.1,374.2z"/>
<path class="st8" d="M194.4,328.3l4.3,7.4l-4.3,7.4l-4.3-7.4L194.4,328.3z"/>
<path class="st8" d="M174.2,368.5l4.3,7.4l-4.3,7.4l-4.3-7.4L174.2,368.5z"/>
<path class="st8" d="M439.8,233.9l4.3,7.4l-4.3,7.4l-4.3-7.4L439.8,233.9z"/>
<path class="st8" d="M122.8,368.6l4.3,7.4l-4.3,7.4l-4.3-7.4L122.8,368.6z"/>
<path class="st8" d="M277.2,323.4l4.3,7.4l-4.3,7.4l-4.3-7.4L277.2,323.4z"/>
<path class="st8" d="M217.6,368.5l4.3,7.4l-4.3,7.4l-4.3-7.4L217.6,368.5z"/>
<path class="st8" d="M96.5,368.6l4.3,7.4l-4.3,7.4l-4.3-7.4L96.5,368.6z"/>
<path class="st8" d="M245.8,352l4.3,7.4l-4.3,7.4l-4.3-7.4L245.8,352z"/>
<path class="st8" d="M245.9,331.9l4.3,7.4l-4.3,7.4l-4.3-7.4L245.9,331.9z"/>
<path class="st8" d="M147.4,363.5l4.3,7.4l-4.3,7.4l-4.3-7.4L147.4,363.5z"/>
<path class="st8" d="M369.1,318.3l4.3,7.4l-4.3,7.4l-4.3-7.4L369.1,318.3z"/>
<path class="st8" d="M356.8,320.7l4.3,7.4l-4.3,7.4l-4.3-7.4L356.8,320.7z"/>
<path class="st8" d="M226,368.5l4.3,7.4l-4.3,7.4l-4.3-7.4L226,368.5z"/>
<path class="st8" d="M52.9,372.6l4.3,7.4l-4.3,7.4l-4.3-7.4L52.9,372.6z"/>
<path class="st8" d="M194,363l4.3,7.4l-4.3,7.4l-4.3-7.4L194,363z"/>
<path class="st8" d="M120.9,368.6l4.3,7.4l-4.3,7.4l-4.3-7.4L120.9,368.6z"/>
<path class="st8" d="M295.9,368.5l4.3,7.4l-4.3,7.4l-4.3-7.4L295.9,368.5z"/>
<path class="st8" d="M207.2,360.6l4.3,7.4l-4.3,7.4l-4.3-7.4L207.2,360.6z"/>
<path class="st8" d="M352.1,320.7l4.3,7.4l-4.3,7.4l-4.3-7.4L352.1,320.7z"/>
<path class="st8" d="M40,372.6l4.3,7.4l-4.3,7.4l-4.3-7.4L40,372.6z"/>
<path class="st8" d="M439.2,315.3l4.3,7.4l-4.3,7.4l-4.3-7.4L439.2,315.3z"/>
<path class="st8" d="M440,298.9l4.3,7.4l-4.3,7.4l-4.3-7.4L440,298.9z"/>
<path class="st8" d="M115.9,368.6l4.3,7.4l-4.3,7.4l-4.3-7.4L115.9,368.6z"/>
<path class="st8" d="M182,372.6l4.3,7.4l-4.3,7.4l-4.3-7.4L182,372.6z"/>
<path class="st8" d="M177.2,366.3l4.3,7.4l-4.3,7.4l-4.3-7.4L177.2,366.3z"/>
<path class="st8" d="M246,368.5l4.3,7.4l-4.3,7.4l-4.3-7.4L246,368.5z"/>
<path class="st8" d="M231.4,326.8l4.3,7.4l-4.3,7.4l-4.3-7.4L231.4,326.8z"/>
<path class="st8" d="M319.7,318.6l4.3,7.4l-4.3,7.4l-4.3-7.4L319.7,318.6z"/>
<path class="st8" d="M165.9,368.6l4.3,7.4l-4.3,7.4l-4.3-7.4L165.9,368.6z"/>
<path class="st8" d="M194.1,361.7l4.3,7.4l-4.3,7.4l-4.3-7.4L194.1,361.7z"/>
<path class="st8" d="M257.3,315.1l4.3,7.4l-4.3,7.4l-4.3-7.4L257.3,315.1z"/>
<path class="st8" d="M189.1,338.7l4.3,7.4l-4.3,7.4l-4.3-7.4L189.1,338.7z"/>
<line class="st9" x1="40" y1="377" x2="440" y2="371.8"/>
<line class="st10" x1="40" y1="360.3" x2="440" y2="312.3"/>
<line class="st11" x1="40" y1="368.3" x2="440" y2="343.4"/>
<line class="st12" x1="40" y1="354.7" x2="440" y2="194.7"/>
<line class="st13" x1="40" y1="362.6" x2="440" y2="284.4"/>
</svg>
