<?xml version="1.0" encoding="utf-8"?>
<!-- Generator: Adobe Illustrator 21.1.0, SVG Export Plug-In . SVG Version: 6.00 Build 0)  -->
<svg version="1.1" id="Layer_1" xmlns="http://www.w3.org/2000/svg" xmlns:xlink="http://www.w3.org/1999/xlink" x="0px" y="0px"
	 viewBox="0 0 470 480" style="enable-background:new 0 0 470 480;" xml:space="preserve">
<style type="text/css">
	.st0{fill:none;stroke:#000000;stroke-miterlimit:10;}
	.st1{font-family:'ArialMT';}
	.st2{font-size:12px;}
	.st3{fill:none;}
	.st4{opacity:0.9;fill:#56B4E9;enable-background:new    ;}
	.st5{opacity:0.9;fill:#009E73;enable-background:new    ;}
	.st6{opacity:0.9;fill:#F0E442;enable-background:new    ;}
	.st7{fill:none;stroke:#56B4E9;}
	.st8{fill:none;stroke:#009E73;}
	.st9{fill:none;stroke:#F0E442;}
</style>
<g transform="translate(6.497924098181692,0)">
	<line class="st0" x1="40" y1="380" x2="40" y2="386"/>
</g>
<g transform="translate(17.356568128919967,0)">
	<line class="st0" x1="40" y1="380" x2="40" y2="386"/>
</g>
<g transform="translate(26.228726310035753,0)">
	<line class="st0" x1="40" y1="380" x2="40" y2="386"/>
</g>
<g transform="translate(33.73002916858677,0)">
	<line class="st0" x1="40" y1="380" x2="40" y2="386"/>
</g>
<g transform="translate(40.22795326676846,0)">
	<line class="st0" x1="40" y1="380" x2="40" y2="386"/>
</g>
<g transform="translate(45.95952852188982,0)">
	<line class="st0" x1="40" y1="380" x2="40" y2="386"/>
</g>
<g transform="translate(51.08659729750673,0)">
	<line x1="40" y1="380" x2="40" y2="386"/>
	<text transform="matrix(0.4226 -0.9063 0.9063 0.4226 42.743 399.6725)" class="st1 st2">1M</text>
</g>
<g transform="translate(84.81662646609351,0)">
	<line x1="40" y1="380" x2="40" y2="386"/>
	<text transform="matrix(0.4226 -0.9063 0.9063 0.4226 42.743 399.6725)" class="st1 st2">2M</text>
</g>
<g transform="translate(104.54742867794755,0)">
	<line class="st0" x1="40" y1="380" x2="40" y2="386"/>
</g>
<g transform="translate(118.54665563468025,0)">
	<line class="st0" x1="40" y1="380" x2="40" y2="386"/>
</g>
<g transform="translate(129.40529966541865,0)">
	<line class="st0" x1="40" y1="380" x2="40" y2="386"/>
</g>
<g transform="translate(138.27745784653433,0)">
	<line class="st0" x1="40" y1="380" x2="40" y2="386"/>
</g>
<g transform="translate(145.77876070508532,0)">
	<line class="st0" x1="40" y1="380" x2="40" y2="386"/>
</g>
<g transform="translate(152.27668480326705,0)">
	<line class="st0" x1="40" y1="380" x2="40" y2="386"/>
</g>
<g transform="translate(158.0082600583883,0)">
	<line class="st0" x1="40" y1="380" x2="40" y2="386"/>
</g>
<g transform="translate(163.1353288340054,0)">
	<line x1="40" y1="380" x2="40" y2="386"/>
	<text transform="matrix(0.4226 -0.9063 0.9063 0.4226 39.9226 405.7213)" class="st1 st2">10M</text>
</g>
<g transform="translate(196.86535800259207,0)">
	<line x1="40" y1="380" x2="40" y2="386"/>
	<text transform="matrix(0.4226 -0.9063 0.9063 0.4226 39.9225 405.7213)" class="st1 st2">20M</text>
</g>
<g transform="translate(216.59616021444603,0)">
	<line class="st0" x1="40" y1="380" x2="40" y2="386"/>
</g>
<g transform="translate(230.59538717117883,0)">
	<line class="st0" x1="40" y1="380" x2="40" y2="386"/>
</g>
<g transform="translate(241.4540312019171,0)">
	<line class="st0" x1="40" y1="380" x2="40" y2="386"/>
</g>
<g transform="translate(250.3261893830329,0)">
	<line class="st0" x1="40" y1="380" x2="40" y2="386"/>
</g>
<g transform="translate(257.8274922415839,0)">
	<line class="st0" x1="40" y1="380" x2="40" y2="386"/>
</g>
<g transform="translate(264.3254163397656,0)">
	<line class="st0" x1="40" y1="380" x2="40" y2="386"/>
</g>
<g transform="translate(270.05699159488694,0)">
	<line class="st0" x1="40" y1="380" x2="40" y2="386"/>
</g>
<g transform="translate(275.18406037050397,0)">
	<line x1="40" y1="380" x2="40" y2="386"/>
	<text transform="matrix(0.4226 -0.9063 0.9063 0.4226 37.1021 411.7692)" class="st1 st2">100M</text>
</g>
<g transform="translate(308.91408953909075,0)">
	<line x1="40" y1="380" x2="40" y2="386"/>
	<text transform="matrix(0.4226 -0.9063 0.9063 0.4226 37.1021 411.7692)" class="st1 st2">200M</text>
</g>
<g transform="translate(328.6448917509446,0)">
	<line class="st0" x1="40" y1="380" x2="40" y2="386"/>
</g>
<g transform="translate(342.6441187076773,0)">
	<line class="st0" x1="40" y1="380" x2="40" y2="386"/>
</g>
<g transform="translate(353.5027627384158,0)">
	<line class="st0" x1="40" y1="380" x2="40" y2="386"/>
</g>
<g transform="translate(362.3749209195316,0)">
	<line class="st0" x1="40" y1="380" x2="40" y2="386"/>
</g>
<g transform="translate(369.8762237780826,0)">
	<line class="st0" x1="40" y1="380" x2="40" y2="386"/>
</g>
<g transform="translate(376.3741478762641,0)">
	<line class="st0" x1="40" y1="380" x2="40" y2="386"/>
</g>
<g transform="translate(382.10572313138545,0)">
	<line class="st0" x1="40" y1="380" x2="40" y2="386"/>
</g>
<g transform="translate(387.23279190700237,0)">
	<line x1="40" y1="380" x2="40" y2="386"/>
	<text transform="matrix(0.4226 -0.9063 0.9063 0.4226 43.0229 399.0719)" class="st1 st2">1G</text>
</g>
<path class="st0" d="M40,380L40,380h400l0,0"/>
<g transform="translate(-5,350)">
	<text transform="matrix(1 0 0 1 387.3125 24)" class="st1 st2">Area (log)</text>
</g>
<g transform="translate(0,350)">
	<line class="st3" x1="40" y1="30" x2="34" y2="30"/>
	<text transform="matrix(1 0 0 1 24.3262 33.84)" class="st1 st2">0</text>
</g>
<line class="st0" x1="40" y1="350.8" x2="34" y2="350.8"/>
<text transform="matrix(1 0 0 1 24.3262 354.6733)" class="st1 st2">5</text>
<line class="st0" x1="40" y1="321.7" x2="34" y2="321.7"/>
<text transform="matrix(1 0 0 1 17.6523 325.5067)" class="st1 st2">10</text>
<line class="st0" x1="40" y1="292.5" x2="34" y2="292.5"/>
<text transform="matrix(1 0 0 1 17.6523 296.34)" class="st1 st2">15</text>
<line class="st0" x1="40" y1="263.3" x2="34" y2="263.3"/>
<text transform="matrix(1 0 0 1 17.6523 267.1733)" class="st1 st2">20</text>
<line class="st0" x1="40" y1="234.2" x2="34" y2="234.2"/>
<text transform="matrix(1 0 0 1 17.6523 238.0066)" class="st1 st2">25</text>
<line class="st0" x1="40" y1="205" x2="34" y2="205"/>
<text transform="matrix(1 0 0 1 17.6523 208.84)" class="st1 st2">30</text>
<line class="st0" x1="40" y1="175.8" x2="34" y2="175.8"/>
<text transform="matrix(1 0 0 1 17.6523 179.6733)" class="st1 st2">35</text>
<line class="st0" x1="40" y1="146.7" x2="34" y2="146.7"/>
<text transform="matrix(1 0 0 1 17.6523 150.5066)" class="st1 st2">40</text>
<line class="st0" x1="40" y1="117.5" x2="34" y2="117.5"/>
<text transform="matrix(1 0 0 1 17.6523 121.34)" class="st1 st2">45</text>
<line class="st0" x1="40" y1="88.3" x2="34" y2="88.3"/>
<text transform="matrix(1 0 0 1 17.6523 92.1733)" class="st1 st2">50</text>
<line class="st0" x1="40" y1="59.2" x2="34" y2="59.2"/>
<text transform="matrix(1 0 0 1 17.6523 63.0066)" class="st1 st2">55</text>
<line class="st3" x1="40" y1="30" x2="34" y2="30"/>
<text transform="matrix(1 0 0 1 17.6523 33.84)" class="st1 st2">60</text>
<path class="st0" d="M34,30h6v350h-6"/>
<text transform="matrix(6.123234e-17 -1 1 6.123234e-17 54.52 136.6937)" class="st1 st2">Taxonomic Diversity</text>
<path class="st4" d="M194.2,263.9l6.1,10.5h-12.2L194.2,263.9z"/>
<path class="st4" d="M174,304.7l6.1,10.5h-12.2L174,304.7z"/>
<path class="st4" d="M438.6,100.6l6.1,10.5h-12.2L438.6,100.6z"/>
<path class="st4" d="M122.9,322.2l6.1,10.5h-12.2L122.9,322.2z"/>
<path class="st4" d="M276.6,158.9l6.1,10.5h-12.2L276.6,158.9z"/>
<path class="st4" d="M217.3,316.4l6.1,10.5h-12.2L217.3,316.4z"/>
<path class="st4" d="M96.7,328.1l6.1,10.5H90.6L96.7,328.1z"/>
<path class="st4" d="M245.4,293.1l6.1,10.5h-12.2L245.4,293.1z"/>
<path class="st4" d="M245.5,246.4l6.1,10.5h-12.2L245.5,246.4z"/>
<path class="st4" d="M147.3,310.6l6.1,10.5h-12.2L147.3,310.6z"/>
<path class="st4" d="M368.2,129.7l6.1,10.5h-12.2L368.2,129.7z"/>
<path class="st4" d="M355.9,83.1l6.1,10.5h-12.2L355.9,83.1z"/>
<path class="st4" d="M225.6,322.2l6.1,10.5h-12.2L225.6,322.2z"/>
<path class="st4" d="M53.2,368.9l6.1,10.5H47.2L53.2,368.9z"/>
<path class="st4" d="M193.7,269.7l6.1,10.5h-12.2L193.7,269.7z"/>
<path class="st4" d="M120.9,316.4l6.1,10.5h-12.2L120.9,316.4z"/>
<path class="st4" d="M295.3,275.6l6.1,10.5h-12.2L295.3,275.6z"/>
<path class="st4" d="M206.9,252.2l6.1,10.5h-12.2L206.9,252.2z"/>
<path class="st4" d="M351.2,106.4l6.1,10.5h-12.2L351.2,106.4z"/>
<path class="st4" d="M40.4,363.1l6.1,10.5H34.3L40.4,363.1z"/>
<path class="st4" d="M438,36.4l6.1,10.5h-12.2L438,36.4z"/>
<path class="st4" d="M438.8,246.4l6.1,10.5h-12.2L438.8,246.4z"/>
<path class="st4" d="M116,322.2l6.1,10.5h-12.2L116,322.2z"/>
<path class="st4" d="M181.8,316.4l6.1,10.5h-12.2L181.8,316.4z"/>
<path class="st4" d="M177,293.1l6.1,10.5h-12.2L177,293.1z"/>
<path class="st4" d="M245.5,328.1l6.1,10.5h-12.2L245.5,328.1z"/>
<path class="st4" d="M231,304.7l6.1,10.5h-12.2L231,304.7z"/>
<path class="st4" d="M318.9,258.1l6.1,10.5h-12.2L318.9,258.1z"/>
<path class="st4" d="M165.8,322.2l6.1,10.5h-12.2L165.8,322.2z"/>
<path class="st4" d="M193.9,269.7l6.1,10.5h-12.2L193.9,269.7z"/>
<path class="st4" d="M256.8,106.4l6.1,10.5h-12.2L256.8,106.4z"/>
<path class="st4" d="M188.9,316.4l6.1,10.5h-12.2L188.9,316.4z"/>
<path class="st5" d="M188.8,349h3.6v-3.6h3.6v3.6h3.6v3.6H196v3.6h-3.6v-3.6h-3.6V349z"/>
<path class="st5" d="M168.6,354.9h3.6v-3.6h3.6v3.6h3.6v3.6h-3.6v3.6h-3.6v-3.6h-3.6V354.9z"/>
<path class="st5" d="M433.2,343.2h3.6v-3.6h3.6v3.6h3.6v3.6h-3.6v3.6h-3.6v-3.6h-3.6V343.2z"/>
<path class="st5" d="M117.5,354.9h3.6v-3.6h3.6v3.6h3.6v3.6h-3.6v3.6h-3.6v-3.6h-3.6V354.9z"/>
<path class="st5" d="M271.2,349h3.6v-3.6h3.6v3.6h3.6v3.6h-3.6v3.6h-3.6v-3.6h-3.6V349z"/>
<path class="st5" d="M211.9,354.9h3.6v-3.6h3.6v3.6h3.6v3.6h-3.6v3.6h-3.6v-3.6h-3.6V354.9z"/>
<path class="st5" d="M91.3,354.9h3.6v-3.6h3.6v3.6h3.6v3.6h-3.6v3.6h-3.6v-3.6h-3.6V354.9z"/>
<path class="st5" d="M240,354.9h3.6v-3.6h3.6v3.6h3.6v3.6h-3.6v3.6h-3.6v-3.6H240V354.9z"/>
<path class="st5" d="M240.1,349h3.6v-3.6h3.6v3.6h3.6v3.6h-3.6v3.6h-3.6v-3.6h-3.6V349z"/>
<path class="st5" d="M141.9,354.9h3.6v-3.6h3.6v3.6h3.6v3.6h-3.6v3.6h-3.6v-3.6h-3.6V354.9z"/>
<path class="st5" d="M362.8,349h3.6v-3.6h3.6v3.6h3.6v3.6H370v3.6h-3.6v-3.6h-3.6V349z"/>
<path class="st5" d="M350.6,343.2h3.6v-3.6h3.6v3.6h3.6v3.6h-3.6v3.6h-3.6v-3.6h-3.6V343.2z"/>
<path class="st5" d="M220.2,349h3.6v-3.6h3.6v3.6h3.6v3.6h-3.6v3.6h-3.6v-3.6h-3.6V349z"/>
<path class="st5" d="M47.9,366.5h3.6V363H55v3.6h3.6v3.6H55v3.6h-3.6v-3.6h-3.6V366.5z"/>
<path class="st5" d="M188.4,354.9h3.6v-3.6h3.6v3.6h3.6v3.6h-3.6v3.6H192v-3.6h-3.6V354.9z"/>
<path class="st5" d="M115.6,354.9h3.6v-3.6h3.6v3.6h3.6v3.6h-3.6v3.6h-3.6v-3.6h-3.6V354.9z"/>
<path class="st5" d="M289.9,349h3.6v-3.6h3.6v3.6h3.6v3.6h-3.6v3.6h-3.6v-3.6h-3.6V349z"/>
<path class="st5" d="M201.5,354.9h3.6v-3.6h3.6v3.6h3.6v3.6h-3.6v3.6h-3.6v-3.6h-3.6V354.9z"/>
<path class="st5" d="M345.9,337.4h3.6v-3.6h3.6v3.6h3.6v3.6H353v3.6h-3.6V341h-3.6V337.4z"/>
<path class="st5" d="M35,349h3.6v-3.6h3.6v3.6h3.6v3.6h-3.6v3.6h-3.6v-3.6H35V349z"/>
<path class="st5" d="M432.6,325.7h3.6v-3.6h3.6v3.6h3.6v3.6h-3.6v3.6h-3.6v-3.6h-3.6V325.7z"/>
<path class="st5" d="M433.4,337.4h3.6v-3.6h3.6v3.6h3.6v3.6h-3.6v3.6H437V341h-3.6V337.4z"/>
<path class="st5" d="M110.6,354.9h3.6v-3.6h3.6v3.6h3.6v3.6h-3.6v3.6h-3.6v-3.6h-3.6V354.9z"/>
<path class="st5" d="M176.5,354.9h3.6v-3.6h3.6v3.6h3.6v3.6h-3.6v3.6H180v-3.6h-3.6V354.9z"/>
<path class="st5" d="M171.6,354.9h3.6v-3.6h3.6v3.6h3.6v3.6h-3.6v3.6h-3.6v-3.6h-3.6V354.9z"/>
<path class="st5" d="M240.2,354.9h3.6v-3.6h3.6v3.6h3.6v3.6h-3.6v3.6h-3.6v-3.6h-3.6V354.9z"/>
<path class="st5" d="M225.7,343.2h3.6v-3.6h3.6v3.6h3.6v3.6h-3.6v3.6h-3.6v-3.6h-3.6V343.2z"/>
<path class="st5" d="M313.6,354.9h3.6v-3.6h3.6v3.6h3.6v3.6h-3.6v3.6h-3.6v-3.6h-3.6V354.9z"/>
<path class="st5" d="M160.4,354.9h3.6v-3.6h3.6v3.6h3.6v3.6h-3.6v3.6H164v-3.6h-3.6V354.9z"/>
<path class="st5" d="M188.5,354.9h3.6v-3.6h3.6v3.6h3.6v3.6h-3.6v3.6h-3.6v-3.6h-3.6V354.9z"/>
<path class="st5" d="M251.4,337.4h3.6v-3.6h3.6v3.6h3.6v3.6h-3.6v3.6H255V341h-3.6V337.4z"/>
<path class="st5" d="M183.5,354.9h3.6v-3.6h3.6v3.6h3.6v3.6h-3.6v3.6h-3.6v-3.6h-3.6V354.9z"/>
<path class="st6" d="M194.2,285.1l4.3,7.4l-4.3,7.4l-4.3-7.4L194.2,285.1z"/>
<path class="st6" d="M174,302.6l4.3,7.4l-4.3,7.4l-4.3-7.4L174,302.6z"/>
<path class="st6" d="M438.6,279.2l4.3,7.4l-4.3,7.4l-4.3-7.4L438.6,279.2z"/>
<path class="st6" d="M122.9,290.9l4.3,7.4l-4.3,7.4l-4.3-7.4L122.9,290.9z"/>
<path class="st6" d="M276.6,261.7l4.3,7.4l-4.3,7.4l-4.3-7.4L276.6,261.7z"/>
<path class="st6" d="M217.3,302.6l4.3,7.4l-4.3,7.4L213,310L217.3,302.6z"/>
<path class="st6" d="M96.7,290.9l4.3,7.4l-4.3,7.4l-4.3-7.4L96.7,290.9z"/>
<path class="st6" d="M245.4,296.7l4.3,7.4l-4.3,7.4l-4.3-7.4L245.4,296.7z"/>
<path class="st6" d="M245.5,255.9l4.3,7.4l-4.3,7.4l-4.3-7.4L245.5,255.9z"/>
<path class="st6" d="M147.3,290.9l4.3,7.4l-4.3,7.4l-4.3-7.4L147.3,290.9z"/>
<path class="st6" d="M368.2,226.7l4.3,7.4l-4.3,7.4l-4.3-7.4L368.2,226.7z"/>
<path class="st6" d="M355.9,215.1l4.3,7.4l-4.3,7.4l-4.3-7.4L355.9,215.1z"/>
<path class="st6" d="M225.6,302.6l4.3,7.4l-4.3,7.4l-4.3-7.4L225.6,302.6z"/>
<path class="st6" d="M53.2,337.6l4.3,7.4l-4.3,7.4l-4.3-7.4L53.2,337.6z"/>
<path class="st6" d="M193.7,285.1l4.3,7.4l-4.3,7.4l-4.3-7.4L193.7,285.1z"/>
<path class="st6" d="M120.9,302.6l4.3,7.4l-4.3,7.4l-4.3-7.4L120.9,302.6z"/>
<path class="st6" d="M295.3,290.9l4.3,7.4l-4.3,7.4l-4.3-7.4L295.3,290.9z"/>
<path class="st6" d="M206.9,285.1l4.3,7.4l-4.3,7.4l-4.3-7.4L206.9,285.1z"/>
<path class="st6" d="M351.2,232.6l4.3,7.4l-4.3,7.4l-4.3-7.4L351.2,232.6z"/>
<path class="st6" d="M40.4,302.6l4.3,7.4l-4.3,7.4l-4.3-7.4L40.4,302.6z"/>
<path class="st6" d="M438,197.6l4.3,7.4l-4.3,7.4l-4.3-7.4L438,197.6z"/>
<path class="st6" d="M438.8,279.2l4.3,7.4l-4.3,7.4l-4.3-7.4L438.8,279.2z"/>
<path class="st6" d="M116,290.9l4.3,7.4l-4.3,7.4l-4.3-7.4L116,290.9z"/>
<path class="st6" d="M181.8,285.1l4.3,7.4l-4.3,7.4l-4.3-7.4L181.8,285.1z"/>
<path class="st6" d="M177,285.1l4.3,7.4l-4.3,7.4l-4.3-7.4L177,285.1z"/>
<path class="st6" d="M245.5,296.7l4.3,7.4l-4.3,7.4l-4.3-7.4L245.5,296.7z"/>
<path class="st6" d="M231,314.2l4.3,7.4l-4.3,7.4l-4.3-7.4L231,314.2z"/>
<path class="st6" d="M318.9,273.4l4.3,7.4l-4.3,7.4l-4.3-7.4L318.9,273.4z"/>
<path class="st6" d="M165.8,302.6l4.3,7.4l-4.3,7.4l-4.3-7.4L165.8,302.6z"/>
<path class="st6" d="M193.9,290.9l4.3,7.4l-4.3,7.4l-4.3-7.4L193.9,290.9z"/>
<path class="st6" d="M256.8,232.6l4.3,7.4l-4.3,7.4l-4.3-7.4L256.8,232.6z"/>
<path class="st6" d="M188.9,302.6l4.3,7.4l-4.3,7.4l-4.3-7.4L188.9,302.6z"/>
<line class="st7" x1="40.4" y1="285.3" x2="438.8" y2="103.9"/>
<line class="st8" x1="40.4" y1="354.3" x2="438.8" y2="336.1"/>
<line class="st9" x1="40.4" y1="293.8" x2="438.8" y2="248.6"/>
</svg>
