<?xml version="1.0" encoding="utf-8"?>
<!-- Generator: Adobe Illustrator 21.1.0, SVG Export Plug-In . SVG Version: 6.00 Build 0)  -->
<svg version="1.1" id="Layer_1" xmlns="http://www.w3.org/2000/svg" xmlns:xlink="http://www.w3.org/1999/xlink" x="0px" y="0px"
	 viewBox="0 0 470 480" style="enable-background:new 0 0 470 480;" xml:space="preserve">
<style type="text/css">
	.st0{fill:none;stroke:#010101;stroke-miterlimit:10;}
	.st1{fill:#010101;stroke:#010101;stroke-miterlimit:10;}
	.st2{font-family:'ArialMT';}
	.st3{font-size:12px;}
	.st4{fill:none;}
	.st5{fill:none;stroke:#000000;stroke-miterlimit:10;}
	.st6{opacity:0.9;fill:#56B4E9;enable-background:new    ;}
	.st7{opacity:0.9;fill:#009E73;enable-background:new    ;}
	.st8{opacity:0.9;fill:#F0E442;enable-background:new    ;}
	.st9{fill:none;stroke:#56B4E9;}
	.st10{fill:none;stroke:#009E73;}
	.st11{fill:none;stroke:#F0E442;}
</style>
<g transform="translate(6.497924098181692,0)">
	<line class="st0" x1="40" y1="380" x2="40" y2="386"/>
</g>
<g transform="translate(17.356568128919967,0)">
	<line class="st0" x1="40" y1="380" x2="40" y2="386"/>
</g>
<g transform="translate(26.228726310035753,0)">
	<line class="st0" x1="40" y1="380" x2="40" y2="386"/>
</g>
<g transform="translate(33.73002916858677,0)">
	<line class="st0" x1="40" y1="380" x2="40" y2="386"/>
</g>
<g transform="translate(40.22795326676846,0)">
	<line class="st0" x1="40" y1="380" x2="40" y2="386"/>
</g>
<g transform="translate(45.95952852188982,0)">
	<line class="st0" x1="40" y1="380" x2="40" y2="386"/>
</g>
<line class="st1" x1="91.1" y1="380" x2="91.1" y2="386"/>
<text transform="matrix(0.4226 -0.9063 0.9063 0.4226 93.8296 399.6725)" class="st2 st3">1M</text>
<line class="st1" x1="124.8" y1="380" x2="124.8" y2="386"/>
<text transform="matrix(0.4226 -0.9063 0.9063 0.4226 127.5596 399.6725)" class="st2 st3">2M</text>
<g transform="translate(104.54742867794755,0)">
	<line class="st0" x1="40" y1="380" x2="40" y2="386"/>
</g>
<g transform="translate(118.54665563468025,0)">
	<line class="st0" x1="40" y1="380" x2="40" y2="386"/>
</g>
<g transform="translate(129.40529966541865,0)">
	<line class="st0" x1="40" y1="380" x2="40" y2="386"/>
</g>
<g transform="translate(138.27745784653433,0)">
	<line class="st0" x1="40" y1="380" x2="40" y2="386"/>
</g>
<g transform="translate(145.77876070508532,0)">
	<line class="st0" x1="40" y1="380" x2="40" y2="386"/>
</g>
<g transform="translate(152.27668480326705,0)">
	<line class="st0" x1="40" y1="380" x2="40" y2="386"/>
</g>
<g transform="translate(158.0082600583883,0)">
	<line class="st0" x1="40" y1="380" x2="40" y2="386"/>
</g>
<line class="st1" x1="203.1" y1="380" x2="203.1" y2="386"/>
<text transform="matrix(0.4226 -0.9063 0.9063 0.4226 203.0579 405.7213)" class="st2 st3">10M</text>
<line class="st1" x1="236.9" y1="380" x2="236.9" y2="386"/>
<text transform="matrix(0.4226 -0.9063 0.9063 0.4226 236.7879 405.7213)" class="st2 st3">20M</text>
<g transform="translate(216.59616021444603,0)">
	<line class="st0" x1="40" y1="380" x2="40" y2="386"/>
</g>
<g transform="translate(230.59538717117883,0)">
	<line class="st0" x1="40" y1="380" x2="40" y2="386"/>
</g>
<g transform="translate(241.4540312019171,0)">
	<line class="st0" x1="40" y1="380" x2="40" y2="386"/>
</g>
<g transform="translate(250.3261893830329,0)">
	<line class="st0" x1="40" y1="380" x2="40" y2="386"/>
</g>
<g transform="translate(257.8274922415839,0)">
	<line class="st0" x1="40" y1="380" x2="40" y2="386"/>
</g>
<g transform="translate(264.3254163397656,0)">
	<line class="st0" x1="40" y1="380" x2="40" y2="386"/>
</g>
<g transform="translate(270.05699159488694,0)">
	<line class="st0" x1="40" y1="380" x2="40" y2="386"/>
</g>
<line class="st1" x1="315.2" y1="380" x2="315.2" y2="386"/>
<text transform="matrix(0.4226 -0.9063 0.9063 0.4226 312.2862 411.7692)" class="st2 st3">100M</text>
<line class="st1" x1="348.9" y1="380" x2="348.9" y2="386"/>
<text transform="matrix(0.4226 -0.9063 0.9063 0.4226 346.0162 411.7692)" class="st2 st3">200M</text>
<g transform="translate(328.6448917509446,0)">
	<line class="st0" x1="40" y1="380" x2="40" y2="386"/>
</g>
<g transform="translate(342.6441187076773,0)">
	<line class="st0" x1="40" y1="380" x2="40" y2="386"/>
</g>
<g transform="translate(353.5027627384158,0)">
	<line class="st0" x1="40" y1="380" x2="40" y2="386"/>
</g>
<g transform="translate(362.3749209195316,0)">
	<line class="st0" x1="40" y1="380" x2="40" y2="386"/>
</g>
<g transform="translate(369.8762237780826,0)">
	<line class="st0" x1="40" y1="380" x2="40" y2="386"/>
</g>
<g transform="translate(376.3741478762641,0)">
	<line class="st0" x1="40" y1="380" x2="40" y2="386"/>
</g>
<g transform="translate(382.10572313138545,0)">
	<line class="st0" x1="40" y1="380" x2="40" y2="386"/>
</g>
<line class="st1" x1="427.2" y1="380" x2="427.2" y2="386"/>
<text transform="matrix(0.4226 -0.9063 0.9063 0.4226 430.2557 399.0719)" class="st2 st3">1G</text>
<path class="st0" d="M40,380L40,380h400l0,0"/>
<g transform="translate(-5,350)">
	<text transform="matrix(1 0 0 1 387.3125 24)" class="st2 st3">Area (log)</text>
</g>
<g transform="translate(0,350)">
	<line class="st4" x1="40" y1="30" x2="34" y2="30"/>
	<text transform="matrix(1 0 0 1 14.3184 33.84)" class="st2 st3">0.0</text>
</g>
<line class="st5" x1="40" y1="341.1" x2="34" y2="341.1"/>
<text transform="matrix(1 0 0 1 14.3184 344.9511)" class="st2 st3">0.1</text>
<line class="st5" x1="40" y1="302.2" x2="34" y2="302.2"/>
<text transform="matrix(1 0 0 1 14.3184 306.0623)" class="st2 st3">0.2</text>
<line class="st5" x1="40" y1="263.3" x2="34" y2="263.3"/>
<text transform="matrix(1 0 0 1 14.3184 267.1733)" class="st2 st3">0.3</text>
<line class="st5" x1="40" y1="224.4" x2="34" y2="224.4"/>
<text transform="matrix(1 0 0 1 14.3184 228.2844)" class="st2 st3">0.4</text>
<line class="st5" x1="40" y1="185.6" x2="34" y2="185.6"/>
<text transform="matrix(1 0 0 1 14.3184 189.3956)" class="st2 st3">0.5</text>
<line class="st5" x1="40" y1="146.7" x2="34" y2="146.7"/>
<text transform="matrix(1 0 0 1 14.3184 150.5066)" class="st2 st3">0.6</text>
<line class="st5" x1="40" y1="107.8" x2="34" y2="107.8"/>
<text transform="matrix(1 0 0 1 14.3184 111.6178)" class="st2 st3">0.7</text>
<line class="st5" x1="40" y1="68.9" x2="34" y2="68.9"/>
<text transform="matrix(1 0 0 1 14.3184 72.7289)" class="st2 st3">0.8</text>
<g transform="translate(0,0)">
	<line class="st4" x1="40" y1="30" x2="34" y2="30"/>
	<text transform="matrix(1 0 0 1 14.3184 33.84)" class="st2 st3">0.9</text>
</g>
<path class="st5" d="M34,30h6v350h-6"/>
<text transform="matrix(6.123234e-17 -1 1 6.123234e-17 54.52 134.7015)" class="st2 st3">Functional Diversity</text>
<path class="st6" d="M194.2,129.5l6.1,10.5h-12.2L194.2,129.5z"/>
<path class="st6" d="M174,139.4l6.1,10.5h-12.2L174,139.4z"/>
<path class="st6" d="M438.6,81.9l6.1,10.5h-12.2L438.6,81.9z"/>
<path class="st6" d="M122.9,144.9l6.1,10.5h-12.2L122.9,144.9z"/>
<path class="st6" d="M276.6,94.9l6.1,10.5h-12.2L276.6,94.9z"/>
<path class="st6" d="M217.3,140.1l6.1,10.5h-12.2L217.3,140.1z"/>
<path class="st6" d="M96.7,148.4l6.1,10.5H90.6L96.7,148.4z"/>
<path class="st6" d="M245.4,131.5l6.1,10.5h-12.2L245.4,131.5z"/>
<path class="st6" d="M245.5,125.9l6.1,10.5h-12.2L245.5,125.9z"/>
<path class="st6" d="M147.3,140.5l6.1,10.5h-12.2L147.3,140.5z"/>
<path class="st6" d="M368.2,92.3l6.1,10.5h-12.2L368.2,92.3z"/>
<path class="st6" d="M355.9,85.5L362,96h-12.2L355.9,85.5z"/>
<path class="st6" d="M225.6,146.9l6.1,10.5h-12.2L225.6,146.9z"/>
<path class="st6" d="M53.2,374.7l6.1,10.5H47.2L53.2,374.7z"/>
<path class="st6" d="M193.7,130.4l6.1,10.5h-12.2L193.7,130.4z"/>
<path class="st6" d="M120.9,143.9l6.1,10.5h-12.2L120.9,143.9z"/>
<path class="st6" d="M295.3,128.4l6.1,10.5h-12.2L295.3,128.4z"/>
<path class="st6" d="M206.9,112.9l6.1,10.5h-12.2L206.9,112.9z"/>
<path class="st6" d="M351.2,73.6l6.1,10.5h-12.2L351.2,73.6z"/>
<path class="st6" d="M40.4,183.8l6.1,10.5H34.3L40.4,183.8z"/>
<path class="st6" d="M438,61.8l6.1,10.5h-12.2L438,61.8z"/>
<path class="st6" d="M438.8,125.8l6.1,10.5h-12.2L438.8,125.8z"/>
<path class="st6" d="M116,144.9l6.1,10.5h-12.2L116,144.9z"/>
<path class="st6" d="M181.8,143.4l6.1,10.5h-12.2L181.8,143.4z"/>
<path class="st6" d="M177,135.7l6.1,10.5h-12.2L177,135.7z"/>
<path class="st6" d="M245.5,148.4l6.1,10.5h-12.2L245.5,148.4z"/>
<path class="st6" d="M231,126.1l6.1,10.5h-12.2L231,126.1z"/>
<path class="st6" d="M318.9,140.4l6.1,10.5h-12.2L318.9,140.4z"/>
<path class="st6" d="M165.8,147l6.1,10.5h-12.2L165.8,147z"/>
<path class="st6" d="M193.9,123.8l6.1,10.5h-12.2L193.9,123.8z"/>
<path class="st6" d="M256.8,86.2l6.1,10.5h-12.2L256.8,86.2z"/>
<path class="st6" d="M188.9,143.9l6.1,10.5h-12.2L188.9,143.9z"/>
<path class="st7" d="M188.8,343.6h3.6V340h3.6v3.6h3.6v3.6H196v3.6h-3.6v-3.6h-3.6V343.6z"/>
<path class="st7" d="M168.6,346.8h3.6v-3.6h3.6v3.6h3.6v3.6h-3.6v3.6h-3.6v-3.6h-3.6V346.8z"/>
<path class="st7" d="M433.2,343.3h3.6v-3.6h3.6v3.6h3.6v3.6h-3.6v3.6h-3.6v-3.6h-3.6V343.3z"/>
<path class="st7" d="M117.5,346.8h3.6v-3.6h3.6v3.6h3.6v3.6h-3.6v3.6h-3.6v-3.6h-3.6V346.8z"/>
<path class="st7" d="M271.2,344.1h3.6v-3.6h3.6v3.6h3.6v3.6h-3.6v3.6h-3.6v-3.6h-3.6V344.1z"/>
<path class="st7" d="M211.9,346.8h3.6v-3.6h3.6v3.6h3.6v3.6h-3.6v3.6h-3.6v-3.6h-3.6V346.8z"/>
<path class="st7" d="M91.3,346.8h3.6v-3.6h3.6v3.6h3.6v3.6h-3.6v3.6h-3.6v-3.6h-3.6V346.8z"/>
<path class="st7" d="M240,346.8h3.6v-3.6h3.6v3.6h3.6v3.6h-3.6v3.6h-3.6v-3.6H240V346.8z"/>
<path class="st7" d="M240.1,343.6h3.6V340h3.6v3.6h3.6v3.6h-3.6v3.6h-3.6v-3.6h-3.6V343.6z"/>
<path class="st7" d="M141.9,346.8h3.6v-3.6h3.6v3.6h3.6v3.6h-3.6v3.6h-3.6v-3.6h-3.6V346.8z"/>
<path class="st7" d="M362.8,343.6h3.6V340h3.6v3.6h3.6v3.6H370v3.6h-3.6v-3.6h-3.6V343.6z"/>
<path class="st7" d="M350.6,341.5h3.6v-3.6h3.6v3.6h3.6v3.6h-3.6v3.6h-3.6v-3.6h-3.6V341.5z"/>
<path class="st7" d="M220.2,343.6h3.6V340h3.6v3.6h3.6v3.6h-3.6v3.6h-3.6v-3.6h-3.6V343.6z"/>
<path class="st7" d="M47.9,355.9h3.6v-3.6H55v3.6h3.6v3.6H55v3.6h-3.6v-3.6h-3.6V355.9z"/>
<path class="st7" d="M188.4,346.8h3.6v-3.6h3.6v3.6h3.6v3.6h-3.6v3.6H192v-3.6h-3.6V346.8z"/>
<path class="st7" d="M115.6,346.8h3.6v-3.6h3.6v3.6h3.6v3.6h-3.6v3.6h-3.6v-3.6h-3.6V346.8z"/>
<path class="st7" d="M289.9,343.6h3.6V340h3.6v3.6h3.6v3.6h-3.6v3.6h-3.6v-3.6h-3.6V343.6z"/>
<path class="st7" d="M201.5,346.8h3.6v-3.6h3.6v3.6h3.6v3.6h-3.6v3.6h-3.6v-3.6h-3.6V346.8z"/>
<path class="st7" d="M345.9,340.7h3.6v-3.6h3.6v3.6h3.6v3.6H353v3.6h-3.6v-3.6h-3.6V340.7z"/>
<path class="st7" d="M35,336.7h3.6v-3.6h3.6v3.6h3.6v3.6h-3.6v3.6h-3.6v-3.6H35V336.7z"/>
<path class="st7" d="M432.6,324.3h3.6v-3.6h3.6v3.6h3.6v3.6h-3.6v3.6h-3.6v-3.6h-3.6V324.3z"/>
<path class="st7" d="M433.4,341.3h3.6v-3.6h3.6v3.6h3.6v3.6h-3.6v3.6H437v-3.6h-3.6V341.3z"/>
<path class="st7" d="M110.6,346.8h3.6v-3.6h3.6v3.6h3.6v3.6h-3.6v3.6h-3.6v-3.6h-3.6V346.8z"/>
<path class="st7" d="M176.5,346.8h3.6v-3.6h3.6v3.6h3.6v3.6h-3.6v3.6H180v-3.6h-3.6V346.8z"/>
<path class="st7" d="M171.6,346.8h3.6v-3.6h3.6v3.6h3.6v3.6h-3.6v3.6h-3.6v-3.6h-3.6V346.8z"/>
<path class="st7" d="M240.2,346.8h3.6v-3.6h3.6v3.6h3.6v3.6h-3.6v3.6h-3.6v-3.6h-3.6V346.8z"/>
<path class="st7" d="M225.7,346.8h3.6v-3.6h3.6v3.6h3.6v3.6h-3.6v3.6h-3.6v-3.6h-3.6V346.8z"/>
<path class="st7" d="M313.6,344.5h3.6v-3.6h3.6v3.6h3.6v3.6h-3.6v3.6h-3.6v-3.6h-3.6V344.5z"/>
<path class="st7" d="M160.4,346.8h3.6v-3.6h3.6v3.6h3.6v3.6h-3.6v3.6H164v-3.6h-3.6V346.8z"/>
<path class="st7" d="M188.5,346.8h3.6v-3.6h3.6v3.6h3.6v3.6h-3.6v3.6h-3.6v-3.6h-3.6V346.8z"/>
<path class="st7" d="M251.4,340.6h3.6V337h3.6v3.6h3.6v3.6h-3.6v3.6H255v-3.6h-3.6V340.6z"/>
<path class="st7" d="M183.5,346.8h3.6v-3.6h3.6v3.6h3.6v3.6h-3.6v3.6h-3.6v-3.6h-3.6V346.8z"/>
<path class="st8" d="M194.2,194.6l4.3,7.4l-4.3,7.4l-4.3-7.4L194.2,194.6z"/>
<path class="st8" d="M174,214.1l4.3,7.4L174,229l-4.3-7.4L174,214.1z"/>
<path class="st8" d="M438.6,124.9l4.3,7.4l-4.3,7.4l-4.3-7.4L438.6,124.9z"/>
<path class="st8" d="M122.9,145.2l4.3,7.4l-4.3,7.4l-4.3-7.4L122.9,145.2z"/>
<path class="st8" d="M276.6,192.6l4.3,7.4l-4.3,7.4l-4.3-7.4L276.6,192.6z"/>
<path class="st8" d="M217.3,140.1l4.3,7.4l-4.3,7.4l-4.3-7.4L217.3,140.1z"/>
<path class="st8" d="M96.7,145.2l4.3,7.4l-4.3,7.4l-4.3-7.4L96.7,145.2z"/>
<path class="st8" d="M245.4,210.9l4.3,7.4l-4.3,7.4l-4.3-7.4L245.4,210.9z"/>
<path class="st8" d="M245.5,191.5l4.3,7.4l-4.3,7.4l-4.3-7.4L245.5,191.5z"/>
<path class="st8" d="M147.3,140.9l4.3,7.4l-4.3,7.4l-4.3-7.4L147.3,140.9z"/>
<path class="st8" d="M368.2,115.8l4.3,7.4l-4.3,7.4l-4.3-7.4L368.2,115.8z"/>
<path class="st8" d="M355.9,118l4.3,7.4l-4.3,7.4l-4.3-7.4L355.9,118z"/>
<path class="st8" d="M225.6,214.1l4.3,7.4l-4.3,7.4l-4.3-7.4L225.6,214.1z"/>
<path class="st8" d="M53.2,340.8l4.3,7.4l-4.3,7.4l-4.3-7.4L53.2,340.8z"/>
<path class="st8" d="M193.7,139.3l4.3,7.4l-4.3,7.4l-4.3-7.4L193.7,139.3z"/>
<path class="st8" d="M120.9,214.1l4.3,7.4l-4.3,7.4l-4.3-7.4L120.9,214.1z"/>
<path class="st8" d="M295.3,140.9l4.3,7.4l-4.3,7.4l-4.3-7.4L295.3,140.9z"/>
<path class="st8" d="M206.9,144.2l4.3,7.4l-4.3,7.4l-4.3-7.4L206.9,144.2z"/>
<path class="st8" d="M351.2,121.9l4.3,7.4l-4.3,7.4l-4.3-7.4L351.2,121.9z"/>
<path class="st8" d="M40.4,196.3l4.3,7.4l-4.3,7.4l-4.3-7.4L40.4,196.3z"/>
<path class="st8" d="M438,108.3l4.3,7.4l-4.3,7.4l-4.3-7.4L438,108.3z"/>
<path class="st8" d="M438.8,124.2l4.3,7.4l-4.3,7.4l-4.3-7.4L438.8,124.2z"/>
<path class="st8" d="M116,145.2l4.3,7.4l-4.3,7.4l-4.3-7.4L116,145.2z"/>
<path class="st8" d="M181.8,119l4.3,7.4l-4.3,7.4l-4.3-7.4L181.8,119z"/>
<path class="st8" d="M177,143.4l4.3,7.4l-4.3,7.4l-4.3-7.4L177,143.4z"/>
<path class="st8" d="M245.5,146.7l4.3,7.4l-4.3,7.4l-4.3-7.4L245.5,146.7z"/>
<path class="st8" d="M231,200.2l4.3,7.4l-4.3,7.4l-4.3-7.4L231,200.2z"/>
<path class="st8" d="M318.9,145.8l4.3,7.4l-4.3,7.4l-4.3-7.4L318.9,145.8z"/>
<path class="st8" d="M165.8,214.1l4.3,7.4l-4.3,7.4l-4.3-7.4L165.8,214.1z"/>
<path class="st8" d="M193.9,210.5l4.3,7.4l-4.3,7.4l-4.3-7.4L193.9,210.5z"/>
<path class="st8" d="M256.8,120.8l4.3,7.4l-4.3,7.4l-4.3-7.4L256.8,120.8z"/>
<path class="st8" d="M188.9,214.1l4.3,7.4l-4.3,7.4l-4.3-7.4L188.9,214.1z"/>
<line class="st9" x1="40.4" y1="146.4" x2="438.8" y2="84.9"/>
<line class="st10" x1="40.4" y1="347.6" x2="438.8" y2="337.7"/>
<line class="st11" x1="40.4" y1="182.3" x2="438.8" y2="116.6"/>
</svg>
