<?xml version="1.0" encoding="utf-8"?>
<!-- Generator: Adobe Illustrator 21.1.0, SVG Export Plug-In . SVG Version: 6.00 Build 0)  -->
<svg version="1.1" id="Layer_1" xmlns="http://www.w3.org/2000/svg" xmlns:xlink="http://www.w3.org/1999/xlink" x="0px" y="0px"
	 viewBox="0 0 470 480" style="enable-background:new 0 0 470 480;" xml:space="preserve">
<style type="text/css">
	.st0{fill:none;stroke:#000000;stroke-miterlimit:10;}
	.st1{font-family:'ArialMT';}
	.st2{font-size:12px;}
	.st3{fill:none;}
	.st4{opacity:0.9;fill:#56B4E9;enable-background:new    ;}
	.st5{opacity:0.9;fill:#009E73;enable-background:new    ;}
	.st6{opacity:0.9;fill:#F0E442;enable-background:new    ;}
	.st7{fill:none;stroke:#56B4E9;}
	.st8{fill:none;stroke:#009E73;}
	.st9{fill:none;stroke:#F0E442;}
</style>
<g transform="translate(6.497924098181692,0)">
	<line class="st0" x1="40" y1="380" x2="40" y2="386"/>
</g>
<g transform="translate(17.356568128919967,0)">
	<line class="st0" x1="40" y1="380" x2="40" y2="386"/>
</g>
<g transform="translate(26.228726310035753,0)">
	<line class="st0" x1="40" y1="380" x2="40" y2="386"/>
</g>
<g transform="translate(33.73002916858677,0)">
	<line class="st0" x1="40" y1="380" x2="40" y2="386"/>
</g>
<g transform="translate(40.22795326676846,0)">
	<line class="st0" x1="40" y1="380" x2="40" y2="386"/>
</g>
<g transform="translate(45.95952852188982,0)">
	<line class="st0" x1="40" y1="380" x2="40" y2="386"/>
</g>
<g transform="translate(51.08659729750673,0)">
	<line x1="40" y1="380" x2="40" y2="386"/>
	<text transform="matrix(0.4226 -0.9063 0.9063 0.4226 42.743 399.6725)" class="st1 st2">1M</text>
</g>
<g transform="translate(84.81662646609351,0)">
	<line x1="40" y1="380" x2="40" y2="386"/>
	<text transform="matrix(0.4226 -0.9063 0.9063 0.4226 42.743 399.6725)" class="st1 st2">2M</text>
</g>
<g transform="translate(104.54742867794755,0)">
	<line class="st0" x1="40" y1="380" x2="40" y2="386"/>
</g>
<g transform="translate(118.54665563468025,0)">
	<line class="st0" x1="40" y1="380" x2="40" y2="386"/>
</g>
<g transform="translate(129.40529966541865,0)">
	<line class="st0" x1="40" y1="380" x2="40" y2="386"/>
</g>
<g transform="translate(138.27745784653433,0)">
	<line class="st0" x1="40" y1="380" x2="40" y2="386"/>
</g>
<g transform="translate(145.77876070508532,0)">
	<line class="st0" x1="40" y1="380" x2="40" y2="386"/>
</g>
<g transform="translate(152.27668480326705,0)">
	<line class="st0" x1="40" y1="380" x2="40" y2="386"/>
</g>
<g transform="translate(158.0082600583883,0)">
	<line class="st0" x1="40" y1="380" x2="40" y2="386"/>
</g>
<g transform="translate(163.1353288340054,0)">
	<line x1="40" y1="380" x2="40" y2="386"/>
	<text transform="matrix(0.4226 -0.9063 0.9063 0.4226 39.9226 405.7213)" class="st1 st2">10M</text>
</g>
<g transform="translate(196.86535800259207,0)">
	<line x1="40" y1="380" x2="40" y2="386"/>
	<text transform="matrix(0.4226 -0.9063 0.9063 0.4226 39.9225 405.7213)" class="st1 st2">20M</text>
</g>
<g transform="translate(216.59616021444603,0)">
	<line class="st0" x1="40" y1="380" x2="40" y2="386"/>
</g>
<g transform="translate(230.59538717117883,0)">
	<line class="st0" x1="40" y1="380" x2="40" y2="386"/>
</g>
<g transform="translate(241.4540312019171,0)">
	<line class="st0" x1="40" y1="380" x2="40" y2="386"/>
</g>
<g transform="translate(250.3261893830329,0)">
	<line class="st0" x1="40" y1="380" x2="40" y2="386"/>
</g>
<g transform="translate(257.8274922415839,0)">
	<line class="st0" x1="40" y1="380" x2="40" y2="386"/>
</g>
<g transform="translate(264.3254163397656,0)">
	<line class="st0" x1="40" y1="380" x2="40" y2="386"/>
</g>
<g transform="translate(270.05699159488694,0)">
	<line class="st0" x1="40" y1="380" x2="40" y2="386"/>
</g>
<g transform="translate(275.18406037050397,0)">
	<line x1="40" y1="380" x2="40" y2="386"/>
	<text transform="matrix(0.4226 -0.9063 0.9063 0.4226 37.1021 411.7692)" class="st1 st2">100M</text>
</g>
<g transform="translate(308.91408953909075,0)">
	<line x1="40" y1="380" x2="40" y2="386"/>
	<text transform="matrix(0.4226 -0.9063 0.9063 0.4226 37.1021 411.7692)" class="st1 st2">200M</text>
</g>
<g transform="translate(328.6448917509446,0)">
	<line class="st0" x1="40" y1="380" x2="40" y2="386"/>
</g>
<g transform="translate(342.6441187076773,0)">
	<line class="st0" x1="40" y1="380" x2="40" y2="386"/>
</g>
<g transform="translate(353.5027627384158,0)">
	<line class="st0" x1="40" y1="380" x2="40" y2="386"/>
</g>
<g transform="translate(362.3749209195316,0)">
	<line class="st0" x1="40" y1="380" x2="40" y2="386"/>
</g>
<g transform="translate(369.8762237780826,0)">
	<line class="st0" x1="40" y1="380" x2="40" y2="386"/>
</g>
<g transform="translate(376.3741478762641,0)">
	<line class="st0" x1="40" y1="380" x2="40" y2="386"/>
</g>
<g transform="translate(382.10572313138545,0)">
	<line class="st0" x1="40" y1="380" x2="40" y2="386"/>
</g>
<g transform="translate(387.23279190700237,0)">
	<line x1="40" y1="380" x2="40" y2="386"/>
	<text transform="matrix(0.4226 -0.9063 0.9063 0.4226 43.0229 399.0719)" class="st1 st2">1G</text>
</g>
<path class="st0" d="M40,380L40,380h400l0,0"/>
<g transform="translate(-5,350)">
	<text transform="matrix(1 0 0 1 387.3125 24)" class="st1 st2">Area (log)</text>
</g>
<g transform="translate(0,350)">
	<line class="st3" x1="40" y1="30" x2="34" y2="30"/>
	<text transform="matrix(1 0 0 1 17.6523 33.84)" class="st1 st2">60</text>
</g>
<line class="st0" x1="40" y1="341.1" x2="34" y2="341.1"/>
<text transform="matrix(1 0 0 1 17.6523 344.9511)" class="st1 st2">70</text>
<line class="st0" x1="40" y1="302.2" x2="34" y2="302.2"/>
<text transform="matrix(1 0 0 1 17.6523 306.0623)" class="st1 st2">80</text>
<line class="st0" x1="40" y1="263.3" x2="34" y2="263.3"/>
<text transform="matrix(1 0 0 1 17.6523 267.1733)" class="st1 st2">90</text>
<line class="st0" x1="40" y1="224.4" x2="34" y2="224.4"/>
<text transform="matrix(1 0 0 1 10.9785 228.2844)" class="st1 st2">100</text>
<line class="st0" x1="40" y1="185.6" x2="34" y2="185.6"/>
<text transform="matrix(1 0 0 1 11.8691 189.3956)" class="st1 st2">110</text>
<line class="st0" x1="40" y1="146.7" x2="34" y2="146.7"/>
<text transform="matrix(1 0 0 1 10.9785 150.5066)" class="st1 st2">120</text>
<line class="st0" x1="40" y1="107.8" x2="34" y2="107.8"/>
<text transform="matrix(1 0 0 1 10.9785 111.6178)" class="st1 st2">130</text>
<line class="st0" x1="40" y1="68.9" x2="34" y2="68.9"/>
<text transform="matrix(1 0 0 1 10.9785 72.7289)" class="st1 st2">140</text>
<g transform="translate(0,0)">
	<line class="st3" x1="40" y1="30" x2="34" y2="30"/>
	<text transform="matrix(1 0 0 1 10.9785 33.84)" class="st1 st2">150</text>
</g>
<path class="st0" d="M34,30h6v350h-6"/>
<text transform="matrix(6.123234e-17 -1 1 6.123234e-17 54.52 148.0492)" class="st1 st2">Phylogenetic Diversity</text>
<path class="st4" d="M194.2,102.1l6.1,10.5h-12.2L194.2,102.1z"/>
<path class="st4" d="M174,121.2l6.1,10.5h-12.2L174,121.2z"/>
<path class="st4" d="M438.6,123.3l6.1,10.5h-12.2L438.6,123.3z"/>
<path class="st4" d="M122.9,109.8l6.1,10.5h-12.2L122.9,109.8z"/>
<path class="st4" d="M276.6,157.3l6.1,10.5h-12.2L276.6,157.3z"/>
<path class="st4" d="M217.3,99.7l6.1,10.5h-12.2L217.3,99.7z"/>
<path class="st4" d="M96.7,92.2l6.1,10.5H90.6L96.7,92.2z"/>
<path class="st4" d="M245.4,105.4l6.1,10.5h-12.2L245.4,105.4z"/>
<path class="st4" d="M245.5,116.7l6.1,10.5h-12.2L245.5,116.7z"/>
<path class="st4" d="M147.3,90.3l6.1,10.5h-12.2L147.3,90.3z"/>
<path class="st4" d="M368.2,140.1l6.1,10.5h-12.2L368.2,140.1z"/>
<path class="st4" d="M355.9,129.1l6.1,10.5h-12.2L355.9,129.1z"/>
<path class="st4" d="M225.6,100.5l6.1,10.5h-12.2L225.6,100.5z"/>
<path class="st4" d="M193.7,97.5l6.1,10.5h-12.2L193.7,97.5z"/>
<path class="st4" d="M120.9,120.6l6.1,10.5h-12.2L120.9,120.6z"/>
<path class="st4" d="M295.3,106.2l6.1,10.5h-12.2L295.3,106.2z"/>
<path class="st4" d="M206.9,123.5l6.1,10.5h-12.2L206.9,123.5z"/>
<path class="st4" d="M351.2,129l6.1,10.5h-12.2L351.2,129z"/>
<path class="st4" d="M40.4,145.9l6.1,10.5H34.3L40.4,145.9z"/>
<path class="st4" d="M438,155.4l6.1,10.5h-12.2L438,155.4z"/>
<path class="st4" d="M438.8,91.4l6.1,10.5h-12.2L438.8,91.4z"/>
<path class="st4" d="M116,109.8l6.1,10.5h-12.2L116,109.8z"/>
<path class="st4" d="M181.8,128.6l6.1,10.5h-12.2L181.8,128.6z"/>
<path class="st4" d="M177,107.2l6.1,10.5h-12.2L177,107.2z"/>
<path class="st4" d="M245.5,92.2l6.1,10.5h-12.2L245.5,92.2z"/>
<path class="st4" d="M231,141.5l6.1,10.5h-12.2L231,141.5z"/>
<path class="st4" d="M318.9,95l6.1,10.5h-12.2L318.9,95z"/>
<path class="st4" d="M165.8,105.7l6.1,10.5h-12.2L165.8,105.7z"/>
<path class="st4" d="M193.9,90l6.1,10.5h-12.2L193.9,90z"/>
<path class="st4" d="M256.8,148.8l6.1,10.5h-12.2L256.8,148.8z"/>
<path class="st4" d="M188.9,120.6l6.1,10.5h-12.2L188.9,120.6z"/>
<path class="st5" d="M188.8,67.9h3.6v-3.6h3.6v3.6h3.6v3.6H196V75h-3.6v-3.6h-3.6V67.9z"/>
<path class="st5" d="M168.6,79h3.6v-3.6h3.6V79h3.6v3.6h-3.6v3.6h-3.6v-3.6h-3.6V79z"/>
<path class="st5" d="M433.2,102.9h3.6v-3.6h3.6v3.6h3.6v3.6h-3.6v3.6h-3.6v-3.6h-3.6V102.9z"/>
<path class="st5" d="M117.5,79h3.6v-3.6h3.6V79h3.6v3.6h-3.6v3.6h-3.6v-3.6h-3.6V79z"/>
<path class="st5" d="M271.2,131.8h3.6v-3.6h3.6v3.6h3.6v3.6h-3.6v3.6h-3.6v-3.6h-3.6V131.8z"/>
<path class="st5" d="M211.9,79h3.6v-3.6h3.6V79h3.6v3.6h-3.6v3.6h-3.6v-3.6h-3.6V79z"/>
<path class="st5" d="M91.3,79h3.6v-3.6h3.6V79h3.6v3.6h-3.6v3.6h-3.6v-3.6h-3.6V79z"/>
<path class="st5" d="M240,79h3.6v-3.6h3.6V79h3.6v3.6h-3.6v3.6h-3.6v-3.6H240V79z"/>
<path class="st5" d="M240.1,67.9h3.6v-3.6h3.6v3.6h3.6v3.6h-3.6V75h-3.6v-3.6h-3.6V67.9z"/>
<path class="st5" d="M141.9,79h3.6v-3.6h3.6V79h3.6v3.6h-3.6v3.6h-3.6v-3.6h-3.6V79z"/>
<path class="st5" d="M362.8,67.9h3.6v-3.6h3.6v3.6h3.6v3.6H370V75h-3.6v-3.6h-3.6V67.9z"/>
<path class="st5" d="M350.6,82.3h3.6v-3.6h3.6v3.6h3.6v3.6h-3.6v3.6h-3.6v-3.6h-3.6V82.3z"/>
<path class="st5" d="M220.2,67.9h3.6v-3.6h3.6v3.6h3.6v3.6h-3.6V75h-3.6v-3.6h-3.6V67.9z"/>
<path class="st5" d="M47.9,374.9h3.6v-3.6H55v3.6h3.6v3.6H55v3.6h-3.6v-3.6h-3.6V374.9z"/>
<path class="st5" d="M188.4,79h3.6v-3.6h3.6V79h3.6v3.6h-3.6v3.6H192v-3.6h-3.6V79z"/>
<path class="st5" d="M115.6,79h3.6v-3.6h3.6V79h3.6v3.6h-3.6v3.6h-3.6v-3.6h-3.6V79z"/>
<path class="st5" d="M289.9,67.9h3.6v-3.6h3.6v3.6h3.6v3.6h-3.6V75h-3.6v-3.6h-3.6V67.9z"/>
<path class="st5" d="M201.5,79h3.6v-3.6h3.6V79h3.6v3.6h-3.6v3.6h-3.6v-3.6h-3.6V79z"/>
<path class="st5" d="M345.9,107.6h3.6v-3.6h3.6v3.6h3.6v3.6H353v3.6h-3.6v-3.6h-3.6V107.6z"/>
<path class="st5" d="M35,136.9h3.6v-3.6h3.6v3.6h3.6v3.6h-3.6v3.6h-3.6v-3.6H35V136.9z"/>
<path class="st5" d="M432.6,82.4h3.6v-3.6h3.6v3.6h3.6V86h-3.6v3.6h-3.6V86h-3.6V82.4z"/>
<path class="st5" d="M433.4,83.1h3.6v-3.6h3.6v3.6h3.6v3.6h-3.6v3.6H437v-3.6h-3.6V83.1z"/>
<path class="st5" d="M110.6,79h3.6v-3.6h3.6V79h3.6v3.6h-3.6v3.6h-3.6v-3.6h-3.6V79z"/>
<path class="st5" d="M176.5,79h3.6v-3.6h3.6V79h3.6v3.6h-3.6v3.6H180v-3.6h-3.6V79z"/>
<path class="st5" d="M171.6,79h3.6v-3.6h3.6V79h3.6v3.6h-3.6v3.6h-3.6v-3.6h-3.6V79z"/>
<path class="st5" d="M240.2,79h3.6v-3.6h3.6V79h3.6v3.6h-3.6v3.6h-3.6v-3.6h-3.6V79z"/>
<path class="st5" d="M225.7,79h3.6v-3.6h3.6V79h3.6v3.6h-3.6v3.6h-3.6v-3.6h-3.6V79z"/>
<path class="st5" d="M313.6,93.9h3.6v-3.6h3.6v3.6h3.6v3.6h-3.6v3.6h-3.6v-3.6h-3.6V93.9z"/>
<path class="st5" d="M160.4,79h3.6v-3.6h3.6V79h3.6v3.6h-3.6v3.6H164v-3.6h-3.6V79z"/>
<path class="st5" d="M188.5,79h3.6v-3.6h3.6V79h3.6v3.6h-3.6v3.6h-3.6v-3.6h-3.6V79z"/>
<path class="st5" d="M251.4,77.6h3.6V74h3.6v3.6h3.6v3.6h-3.6v3.6H255v-3.6h-3.6V77.6z"/>
<path class="st5" d="M183.5,79h3.6v-3.6h3.6V79h3.6v3.6h-3.6v3.6h-3.6v-3.6h-3.6V79z"/>
<path class="st6" d="M194.2,114.7l4.3,7.4l-4.3,7.4l-4.3-7.4L194.2,114.7z"/>
<path class="st6" d="M174,122.5l4.3,7.4l-4.3,7.4l-4.3-7.4L174,122.5z"/>
<path class="st6" d="M438.6,98l4.3,7.4l-4.3,7.4l-4.3-7.4L438.6,98z"/>
<path class="st6" d="M122.9,123.6l4.3,7.4l-4.3,7.4l-4.3-7.4L122.9,123.6z"/>
<path class="st6" d="M276.6,116.7l4.3,7.4l-4.3,7.4l-4.3-7.4L276.6,116.7z"/>
<path class="st6" d="M217.3,93.8l4.3,7.4l-4.3,7.4l-4.3-7.4L217.3,93.8z"/>
<path class="st6" d="M96.7,123.6l4.3,7.4l-4.3,7.4l-4.3-7.4L96.7,123.6z"/>
<path class="st6" d="M245.4,141l4.3,7.4l-4.3,7.4l-4.3-7.4L245.4,141z"/>
<path class="st6" d="M245.5,128.4l4.3,7.4l-4.3,7.4l-4.3-7.4L245.5,128.4z"/>
<path class="st6" d="M147.3,104l4.3,7.4l-4.3,7.4l-4.3-7.4L147.3,104z"/>
<path class="st6" d="M368.2,118l4.3,7.4l-4.3,7.4l-4.3-7.4L368.2,118z"/>
<path class="st6" d="M355.9,123.1l4.3,7.4l-4.3,7.4l-4.3-7.4L355.9,123.1z"/>
<path class="st6" d="M225.6,122.5l4.3,7.4l-4.3,7.4l-4.3-7.4L225.6,122.5z"/>
<path class="st6" d="M53.2,209l4.3,7.4l-4.3,7.4l-4.3-7.4L53.2,209z"/>
<path class="st6" d="M193.7,116.6l4.3,7.4l-4.3,7.4l-4.3-7.4L193.7,116.6z"/>
<path class="st6" d="M120.9,122.5l4.3,7.4l-4.3,7.4l-4.3-7.4L120.9,122.5z"/>
<path class="st6" d="M295.3,104l4.3,7.4l-4.3,7.4l-4.3-7.4L295.3,104z"/>
<path class="st6" d="M206.9,117.1l4.3,7.4l-4.3,7.4l-4.3-7.4L206.9,117.1z"/>
<path class="st6" d="M351.2,113.4l4.3,7.4l-4.3,7.4l-4.3-7.4L351.2,113.4z"/>
<path class="st6" d="M40.4,128.6l4.3,7.4l-4.3,7.4l-4.3-7.4L40.4,128.6z"/>
<path class="st6" d="M438,123.9l4.3,7.4l-4.3,7.4l-4.3-7.4L438,123.9z"/>
<path class="st6" d="M438.8,92.2l4.3,7.4l-4.3,7.4l-4.3-7.4L438.8,92.2z"/>
<path class="st6" d="M116,123.6l4.3,7.4l-4.3,7.4l-4.3-7.4L116,123.6z"/>
<path class="st6" d="M181.8,115.1l4.3,7.4l-4.3,7.4l-4.3-7.4L181.8,115.1z"/>
<path class="st6" d="M177,116.7l4.3,7.4l-4.3,7.4l-4.3-7.4L177,116.7z"/>
<path class="st6" d="M245.5,108.1l4.3,7.4l-4.3,7.4l-4.3-7.4L245.5,108.1z"/>
<path class="st6" d="M231,119l4.3,7.4l-4.3,7.4l-4.3-7.4L231,119z"/>
<path class="st6" d="M318.9,86.2l4.3,7.4l-4.3,7.4l-4.3-7.4L318.9,86.2z"/>
<path class="st6" d="M165.8,122.5l4.3,7.4l-4.3,7.4l-4.3-7.4L165.8,122.5z"/>
<path class="st6" d="M193.9,111.7l4.3,7.4l-4.3,7.4l-4.3-7.4L193.9,111.7z"/>
<path class="st6" d="M256.8,110.4l4.3,7.4l-4.3,7.4l-4.3-7.4L256.8,110.4z"/>
<path class="st6" d="M188.9,122.5l4.3,7.4l-4.3,7.4l-4.3-7.4L188.9,122.5z"/>
<line class="st7" x1="40.4" y1="138" x2="438.8" y2="126.7"/>
<line class="st8" x1="40.4" y1="94.9" x2="438.8" y2="88.7"/>
<line class="st9" x1="40.4" y1="128.1" x2="438.8" y2="110.7"/>
</svg>
